<svg width="20" height="19" viewBox="0 0 20 19" fill="none" xmlns="http://www.w3.org/2000/svg">
<path d="M5.19896 18.8185C4.07585 18.7674 3.46574 18.5805 3.05994 18.4222C2.52224 18.2128 2.13889 17.9636 1.73533 17.5606C1.33177 17.1576 1.082 16.7743 0.87377 16.2366C0.71549 15.8308 0.528585 15.2207 0.477509 14.0976C0.421382 12.8835 0.410156 12.5193 0.410156 9.44347C0.410156 6.36767 0.422504 6.00397 0.476948 4.78881C0.528024 3.66569 0.716052 3.05671 0.873209 2.64978C1.08256 2.11208 1.33233 1.72873 1.73477 1.32461C2.13776 0.921615 2.52111 0.671286 3.05938 0.463053C3.46518 0.304773 4.07529 0.117868 5.1984 0.0667918C6.413 0.0112255 6.77783 0 9.8525 0C12.9283 0 13.292 0.0123481 14.5072 0.0667918C15.6303 0.117868 16.2393 0.305895 16.6462 0.463053C17.1839 0.671286 17.5672 0.921615 17.9708 1.32461C18.3743 1.72761 18.623 2.11152 18.8324 2.64922C18.9906 3.05502 19.1775 3.66513 19.2286 4.78824C19.2842 6.00341 19.2954 6.36711 19.2954 9.4429C19.2954 12.5176 19.2842 12.8824 19.2286 14.0976C19.1775 15.2207 18.9895 15.8308 18.8324 16.2366C18.623 16.7743 18.3738 17.1576 17.9708 17.5606C17.5678 17.9636 17.1839 18.2128 16.6462 18.4222C16.2404 18.5805 15.6303 18.7674 14.5072 18.8185C13.2931 18.874 12.9283 18.8852 9.8525 18.8852C6.77783 18.8852 6.413 18.8746 5.19896 18.8185Z" fill="white"/>
<path d="M7.71014 9.37663C7.71014 8.2301 8.63934 7.3004 9.78588 7.3004C10.9324 7.3004 11.8621 8.2301 11.8621 9.37663C11.8621 10.5232 10.9324 11.4529 9.78588 11.4529C8.63934 11.4529 7.71014 10.5232 7.71014 9.37663M6.58777 9.37663C6.58777 11.143 8.01956 12.5747 9.78588 12.5747C11.5522 12.5747 12.984 11.143 12.984 9.37663C12.984 7.61032 11.5522 6.17853 9.78588 6.17853C8.01956 6.17853 6.58782 7.61022 6.58782 9.37663M12.3633 6.05172C12.3632 6.19954 12.407 6.34406 12.489 6.467C12.5711 6.58994 12.6878 6.68578 12.8243 6.7424C12.9609 6.79902 13.1112 6.81388 13.2562 6.7851C13.4011 6.75632 13.5343 6.6852 13.6389 6.58071C13.7435 6.47623 13.8147 6.34309 13.8436 6.19812C13.8725 6.05316 13.8578 5.90288 13.8012 5.76629C13.7447 5.6297 13.649 5.51293 13.5261 5.43076C13.4032 5.34859 13.2588 5.3047 13.1109 5.30464H13.1106C12.9125 5.30473 12.7225 5.38346 12.5824 5.52354C12.4422 5.66362 12.3634 5.85359 12.3633 6.05172M7.26968 14.4463C6.66246 14.4186 6.33241 14.3175 6.11308 14.232C5.8223 14.1188 5.61483 13.984 5.39669 13.7662C5.17855 13.5483 5.04353 13.3411 4.93082 13.0503C4.84532 12.831 4.74417 12.5009 4.71657 11.8937C4.68638 11.2372 4.68035 11.04 4.68035 9.37673C4.68035 7.71351 4.68688 7.51684 4.71657 6.85979C4.74422 6.25257 4.84612 5.92307 4.93082 5.70319C5.04402 5.41241 5.17885 5.20494 5.39669 4.9868C5.61453 4.76867 5.8218 4.63364 6.11308 4.52093C6.33232 4.43543 6.66246 4.33429 7.26968 4.30668C7.92619 4.27649 8.1234 4.27046 9.78588 4.27046C11.4484 4.27046 11.6458 4.27689 12.3028 4.30678C12.91 4.33444 13.2395 4.43633 13.4594 4.52103C13.7502 4.63374 13.9577 4.76906 14.1758 4.9869C14.3939 5.20474 14.5285 5.41251 14.6417 5.70329C14.7272 5.92253 14.8283 6.25267 14.8559 6.85989C14.8861 7.51694 14.8921 7.71361 14.8921 9.37683C14.8921 11.0401 14.8861 11.2367 14.8559 11.8938C14.8283 12.501 14.7266 12.831 14.6417 13.0504C14.5285 13.3412 14.3936 13.5486 14.1758 13.7663C13.958 13.9839 13.7502 14.1189 13.4594 14.2321C13.2402 14.3176 12.91 14.4188 12.3028 14.4464C11.6463 14.4766 11.4491 14.4826 9.78588 14.4826C8.12265 14.4826 7.92599 14.4766 7.26968 14.4464M7.21811 3.18616C6.55509 3.21635 6.10202 3.32148 5.70636 3.47544C5.29684 3.63444 4.94971 3.84774 4.60307 4.19383C4.25643 4.53992 4.04368 4.8871 3.88468 5.29712C3.73072 5.69303 3.62559 6.14584 3.5954 6.80887C3.5647 7.47295 3.55768 7.68526 3.55768 9.37663C3.55768 11.068 3.5647 11.2803 3.5954 11.9444C3.62559 12.6075 3.73072 13.0602 3.88468 13.4562C4.04368 13.8657 4.25648 14.2135 4.60307 14.5594C4.94966 14.9054 5.29634 15.1184 5.70636 15.2778C6.10277 15.4318 6.55509 15.5369 7.21811 15.5671C7.88254 15.5973 8.0945 15.6048 9.78588 15.6048C11.4773 15.6048 11.6896 15.5978 12.3536 15.5671C13.0167 15.5369 13.4695 15.4318 13.8654 15.2778C14.2749 15.1184 14.622 14.9055 14.9687 14.5594C15.3153 14.2134 15.5276 13.8657 15.6871 13.4562C15.841 13.0602 15.9467 12.6074 15.9764 11.9444C16.0065 11.2798 16.0136 11.068 16.0136 9.37663C16.0136 7.68526 16.0065 7.47295 15.9764 6.80887C15.9462 6.14579 15.841 5.69278 15.6871 5.29712C15.5276 4.8876 15.3148 4.54046 14.9687 4.19383C14.6226 3.84719 14.2749 3.63444 13.8659 3.47544C13.4695 3.32148 13.0167 3.21585 12.3541 3.18616C11.69 3.15581 11.4778 3.14844 9.78662 3.14844C8.09549 3.14844 7.88279 3.15546 7.21836 3.18616" fill="#101436"/>
</svg>
