<svg xmlns="http://www.w3.org/2000/svg" width="20" height="19" fill="none"><path fill="#181A1C" d="M5.199 18.835c-1.123-.051-1.733-.238-2.14-.396a3.58 3.58 0 0 1-1.324-.862 3.552 3.552 0 0 1-.861-1.324c-.159-.406-.345-1.016-.396-2.14C.42 12.9.41 12.537.41 9.46c0-3.076.013-3.44.067-4.655.051-1.123.24-1.732.396-2.139.21-.538.46-.92.862-1.325A3.556 3.556 0 0 1 3.059.479C3.465.321 4.075.134 5.2.083 6.412.028 6.777.016 9.851.016c3.076 0 3.44.013 4.655.067 1.123.051 1.732.24 2.14.396.537.209.92.459 1.324.862.403.403.652.787.861 1.325.159.405.345 1.015.397 2.139.055 1.215.066 1.578.066 4.654 0 3.075-.01 3.44-.066 4.655-.052 1.123-.24 1.733-.397 2.139-.209.538-.458.921-.861 1.324a3.575 3.575 0 0 1-1.325.862c-.406.158-1.016.345-2.139.396-1.214.055-1.579.067-4.655.067-3.074 0-3.439-.011-4.653-.067Z"/><path fill="#fff" d="M7.71 9.392a2.076 2.076 0 1 1 4.152 0 2.076 2.076 0 0 1-4.152 0Zm-1.122 0a3.198 3.198 0 1 0 6.396 0 3.198 3.198 0 0 0-6.396 0m5.775-3.325a.747.747 0 1 0 .748-.747.748.748 0 0 0-.748.747ZM7.27 14.462c-.608-.028-.938-.129-1.157-.214a1.936 1.936 0 0 1-.716-.466 1.922 1.922 0 0 1-.466-.716c-.086-.22-.187-.55-.214-1.157-.03-.656-.037-.854-.037-2.517 0-1.663.007-1.86.037-2.517.027-.607.13-.936.214-1.156.113-.291.248-.499.466-.717a1.92 1.92 0 0 1 .716-.466c.22-.085.55-.186 1.157-.214.656-.03.853-.036 2.516-.036 1.662 0 1.86.006 2.517.036.607.028.936.13 1.156.215.291.112.499.248.717.465.218.218.352.426.466.717.085.219.186.55.214 1.156.03.657.036.854.036 2.517 0 1.664-.006 1.86-.036 2.517-.028.607-.13.938-.214 1.157a1.93 1.93 0 0 1-.466.716 1.936 1.936 0 0 1-.717.466c-.219.085-.549.186-1.156.214-.657.03-.854.036-2.517.036-1.663 0-1.86-.006-2.516-.036m-.052-11.26c-.663.03-1.116.135-1.512.289-.41.159-.756.372-1.103.718s-.56.694-.718 1.104c-.154.396-.26.848-.29 1.511-.03.664-.037.877-.037 2.568 0 1.692.007 1.904.037 2.568.03.663.136 1.116.29 1.512.159.41.371.757.718 1.103s.693.559 1.103.718c.397.154.849.26 1.512.29.664.03.876.037 2.568.037 1.691 0 1.904-.007 2.568-.037.663-.03 1.115-.136 1.511-.29.41-.16.757-.372 1.104-.718.346-.346.559-.694.718-1.103.154-.396.26-.85.29-1.512.03-.665.037-.877.037-2.568s-.008-1.904-.038-2.568c-.03-.663-.135-1.116-.289-1.511a3.062 3.062 0 0 0-.718-1.104 3.048 3.048 0 0 0-1.103-.718c-.397-.154-.85-.26-1.512-.29-.664-.03-.876-.037-2.567-.037-1.692 0-1.904.007-2.569.038"/></svg>