<svg width="19" height="19" viewBox="0 0 19 19" fill="none" xmlns="http://www.w3.org/2000/svg">
<rect x="0.115234" width="18.8852" height="18.8852" rx="9.44262" fill="white"/>
<g clip-path="url(#clip0_15169_41125)">
<path d="M4.04965 5.40255C4.04965 5.04809 4.17371 4.75567 4.42183 4.52528C4.66994 4.29488 4.9925 4.17969 5.38948 4.17969C5.77939 4.17969 6.09484 4.29311 6.33587 4.51996C6.58399 4.7539 6.70805 5.05872 6.70805 5.43445C6.70805 5.77472 6.58754 6.05828 6.34651 6.28514C6.09839 6.51908 5.77229 6.63605 5.36822 6.63605H5.35758C4.96768 6.63605 4.65223 6.51908 4.41119 6.28514C4.17016 6.0512 4.04965 5.757 4.04965 5.40255ZM4.18789 14.7069V7.6037H6.54854V14.7069H4.18789ZM7.85648 14.7069H10.2171V10.7406C10.2171 10.4925 10.2455 10.3011 10.3022 10.1664C10.4014 9.92536 10.5521 9.72155 10.7541 9.55496C10.9562 9.38837 11.2096 9.30507 11.5144 9.30507C12.3084 9.30507 12.7054 9.84029 12.7054 10.9107V14.7069H15.066V10.6343C15.066 9.58509 14.8179 8.78935 14.3217 8.24703C13.8255 7.70472 13.1697 7.43356 12.3545 7.43356C11.44 7.43356 10.7275 7.82701 10.2171 8.61389V8.63516H10.2065L10.2171 8.61389V7.6037H7.85648C7.87065 7.83055 7.87774 8.5359 7.87774 9.71978C7.87774 10.9037 7.87065 12.566 7.85648 14.7069Z" fill="#101436"/>
</g>
<defs>
<clipPath id="clip0_15169_41125">
<rect x="4.04965" y="3.93359" width="11.0164" height="11.0164" fill="white"/>
</clipPath>
</defs>
</svg>
