<svg xmlns="http://www.w3.org/2000/svg" width="19" height="19" fill="none"><rect width="18.885" height="18.885" x=".115" y=".016" fill="#181A1C" rx="9.443"/><g clipPath="url(#a)"><path fill="#fff" d="M4.05 5.42c0-.354.124-.647.372-.877.248-.23.57-.345.968-.345.39 0 .705.113.946.34.248.234.372.539.372.914 0 .34-.12.624-.361.851-.248.234-.575.35-.979.35h-.01c-.39 0-.706-.116-.947-.35a1.179 1.179 0 0 1-.361-.883Zm.138 9.305V7.622h2.36v7.103h-2.36Zm3.669 0h2.36v-3.967c0-.248.029-.44.085-.574.1-.24.25-.445.452-.611.202-.167.456-.25.76-.25.795 0 1.192.535 1.192 1.606v3.796h2.36v-4.073c0-1.05-.248-1.845-.744-2.387s-1.152-.814-1.967-.814c-.915 0-1.627.394-2.138 1.18v.022h-.01l.01-.021v-1.01h-2.36c.014.226.02.932.02 2.116 0 1.184-.006 2.846-.02 4.987Z"/></g><defs><clipPath id="a"><path fill="#fff" d="M4.05 3.951h11.016v11.016H4.05z"/></clipPath></defs></svg>