<svg width="20" height="19" viewBox="0 0 20 19" fill="none" xmlns="http://www.w3.org/2000/svg">
<rect x="0.704895" width="18.8852" height="18.8852" rx="9.44262" fill="white"/>
<path d="M8.41955 14.424C12.6074 14.424 14.8972 10.9538 14.8972 7.94632C14.8972 7.84717 14.8972 7.74802 14.8925 7.65359C15.3363 7.33255 15.7234 6.93123 16.0303 6.47327C15.6243 6.65268 15.1852 6.77543 14.7225 6.83209C15.1946 6.54881 15.5534 6.105 15.7234 5.5715C15.2843 5.83117 14.798 6.02002 14.2787 6.12389C13.8632 5.68009 13.2731 5.40625 12.6168 5.40625C11.3609 5.40625 10.3411 6.42605 10.3411 7.68192C10.3411 7.86133 10.36 8.03602 10.4025 8.20127C8.50925 8.10684 6.83319 7.20035 5.70952 5.82173C5.51594 6.15694 5.40263 6.54881 5.40263 6.96428C5.40263 7.75274 5.80394 8.4515 6.41771 8.85753C6.04473 8.84809 5.69535 8.74422 5.38847 8.57425C5.38847 8.58369 5.38847 8.59314 5.38847 8.60258C5.38847 9.70737 6.1722 10.6233 7.21561 10.8358C7.02676 10.8877 6.82374 10.916 6.61601 10.916C6.46965 10.916 6.32801 10.9019 6.18637 10.8735C6.47437 11.78 7.31476 12.4363 8.31096 12.4552C7.53194 13.0642 6.54991 13.4278 5.48289 13.4278C5.29876 13.4278 5.11935 13.4183 4.93994 13.3947C5.93614 14.0463 7.13535 14.424 8.41955 14.424Z" fill="#101436"/>
</svg>
