<svg xmlns="http://www.w3.org/2000/svg" width="20" height="19" fill="none"><rect width="18.885" height="18.885" x=".705" y=".016" fill="#181A1C" rx="9.443"/><path fill="#fff" d="M8.42 14.44c4.187 0 6.477-3.47 6.477-6.478 0-.099 0-.198-.005-.292.444-.321.831-.723 1.138-1.18a4.62 4.62 0 0 1-1.308.358c.473-.283.831-.727 1.001-1.26a4.61 4.61 0 0 1-1.444.552 2.277 2.277 0 0 0-3.876 2.077 6.458 6.458 0 0 1-4.693-2.38 2.284 2.284 0 0 0-.307 1.143c0 .789.4 1.487 1.015 1.894a2.236 2.236 0 0 1-1.03-.284v.029c0 1.104.784 2.02 1.828 2.233a2.267 2.267 0 0 1-1.03.037 2.273 2.273 0 0 0 2.125 1.582 4.577 4.577 0 0 1-3.371.94 6.343 6.343 0 0 0 3.48 1.029Z"/></svg>