<svg width="59" height="46" viewBox="0 0 59 46" fill="none" xmlns="http://www.w3.org/2000/svg">
<path d="M20.3773 18.1881L26.8865 30.676L35.3122 13.0532L41.0834 24.9632H51.4816C53.2734 22.0488 54.4109 19.009 54.4109 15.9878C54.4109 7.00038 47.9473 0 39.6138 0C35.0073 0 31.5569 2.09425 29.1817 4.79927C29.1417 4.83992 29.1052 4.8825 29.069 4.92656C26.687 2.16045 23.2 0 18.5226 0C10.1891 0 3.72559 7.00038 3.72559 15.9878C3.72559 19.0011 4.87843 22.0426 6.69222 24.9632H15.6396L20.3773 18.1881Z" fill="url(#paint0_linear_12129_4272)"/>
<path d="M57.0004 23.828H41.7947L36.3338 12.5583C36.144 12.1666 35.7471 11.918 35.312 11.918H35.309C34.8728 11.9191 34.4758 12.17 34.2876 12.5637L26.8424 28.1355L21.384 17.6634C21.2006 17.3115 20.8467 17.0809 20.4508 17.0552C20.0553 17.0298 19.6741 17.2123 19.4467 17.5375L15.0479 23.8279H1.13547C0.508348 23.8279 0 24.3362 0 24.9633C0 25.5905 0.508348 26.0988 1.13547 26.0988H5.99481C8.86617 30.5569 13.4756 35.2031 19.7042 39.9162C24.4645 43.5183 28.3403 45.7557 28.5029 45.8491C28.6753 45.9481 28.8704 46.0001 29.0687 46.0001C29.0803 46.0001 29.0918 46 29.1034 45.9997L29.2162 45.9961C29.4026 45.9905 29.5846 45.939 29.7463 45.8464C29.9086 45.7533 33.7772 43.5257 38.5247 39.9286C44.7353 35.2226 49.3269 30.5724 52.1811 26.0989H57.0004C57.6275 26.0989 58.1359 25.5906 58.1359 24.9635C58.1359 24.3363 57.6275 23.828 57.0004 23.828ZM29.1225 43.5762C26.5497 42.0249 14.9273 34.7346 8.74105 26.0988H15.6392C16.01 26.0988 16.3573 25.9178 16.5697 25.6141L20.235 20.3725L25.8792 31.2009C26.0751 31.5766 26.4634 31.8116 26.886 31.8116C26.8926 31.8116 26.8992 31.8116 26.9057 31.8115C27.3359 31.8041 27.7249 31.554 27.9106 31.1659L35.3187 15.6714L40.0612 25.4585C40.2509 25.8501 40.6479 26.0988 41.083 26.0988H49.4424C43.2943 34.7593 31.6818 42.0353 29.1225 43.5762Z" fill="#99D4FF"/>
<defs>
<linearGradient id="paint0_linear_12129_4272" x1="-5.49988" y1="65.0029" x2="24.9039" y2="66.8656" gradientUnits="userSpaceOnUse">
<stop stop-color="#6DC0FD"/>
<stop offset="1" stop-color="#C7E7FF"/>
</linearGradient>
</defs>
</svg>
