<svg width="46" height="46" viewBox="0 0 46 46" fill="none" xmlns="http://www.w3.org/2000/svg">
<path fill-rule="evenodd" clip-rule="evenodd" d="M15.8231 20.6542C17.1259 21.194 18.5228 21.4702 19.933 21.4667C22.4161 21.4668 24.8226 20.606 26.7422 19.0309C28.6619 17.4557 29.976 15.2637 30.4606 12.8283C30.9453 10.3928 30.5705 7.86472 29.4002 5.67463C28.2299 3.48455 26.3363 1.76801 24.0423 0.817484C21.7482 -0.13304 19.1956 -0.258741 16.8192 0.4618C14.4429 1.18234 12.3899 2.70454 11.0101 4.76905C9.63022 6.83355 9.00889 9.31263 9.25193 11.7839C9.44452 13.7421 10.1704 15.5994 11.337 17.1599L5.65124 22.8463L3.48338 20.6785C3.19419 20.3992 2.80687 20.2446 2.40484 20.2481C2.0028 20.2516 1.61822 20.4129 1.33393 20.6971C1.04964 20.9814 0.888378 21.366 0.884885 21.7681C0.881391 22.1701 1.03594 22.5574 1.31525 22.8466L3.4835 25.0143L0.44894 28.0493C0.234565 28.2637 0.0885823 28.5369 0.0294453 28.8343C-0.0296916 29.1317 0.000673057 29.44 0.1167 29.7201C0.232728 30.0002 0.429209 30.2397 0.681304 30.4082C0.933399 30.5767 1.22979 30.6666 1.53301 30.6667C1.93964 30.6666 2.32958 30.505 2.61707 30.2174L5.65189 27.1822L7.82118 29.351C8.10867 29.6386 8.49862 29.8002 8.90525 29.8003V29.8018C9.20847 29.8017 9.50486 29.7118 9.75695 29.5433C10.009 29.3748 10.2055 29.1353 10.3216 28.8552C10.4376 28.5751 10.4679 28.2668 10.4088 27.9694C10.3497 27.672 10.2037 27.3988 9.98932 27.1844L7.81937 25.0145L13.5025 19.3306C14.2159 19.8661 14.9953 20.3112 15.8231 20.6542ZM15.6739 4.35862C16.9346 3.51629 18.4168 3.06669 19.933 3.06667C21.1938 3.06665 22.4352 3.3776 23.5472 3.97196C24.6591 4.56633 25.6073 5.42577 26.3078 6.47414C27.0082 7.52251 27.4393 8.72746 27.5629 9.98224C27.6864 11.237 27.4985 12.5029 27.0159 13.6677C26.5334 14.8326 25.7709 15.8604 24.7962 16.6602C23.8215 17.46 22.6646 18.007 21.4279 18.2529C20.1913 18.4987 18.9131 18.4357 17.7066 18.0696C16.5001 17.7034 15.4025 17.0454 14.5111 16.1537C13.4391 15.0814 12.7092 13.7153 12.4136 12.2282C12.1179 10.7411 12.2699 9.1997 12.8502 7.79894C13.4305 6.39818 14.4132 5.20095 15.6739 4.35862Z" fill="#99D4FF"/>
<path fill-rule="evenodd" clip-rule="evenodd" d="M43.3819 25.6177C43.6695 25.9053 44.0595 26.0668 44.4662 26.0668C44.8728 26.0668 45.2628 25.9053 45.5504 25.6177C45.838 25.3302 45.9995 24.9402 45.9995 24.5335V16.8668C45.9995 16.4602 45.838 16.0702 45.5504 15.7826C45.2628 15.495 44.8728 15.3335 44.4662 15.3335H36.7995C36.3928 15.3335 36.0028 15.495 35.7153 15.7826C35.4277 16.0702 35.2662 16.4602 35.2662 16.8668C35.2662 17.2735 35.4277 17.6635 35.7153 17.9511C36.0028 18.2386 36.3928 18.4002 36.7995 18.4002H40.765L32.4943 26.6719C31.4992 25.9275 30.379 25.3592 29.1824 24.996C27.4932 24.4834 25.7037 24.3953 23.9724 24.7395C22.2411 25.0837 20.6214 25.8496 19.2568 26.9693C17.8922 28.0891 16.8248 29.5281 16.1492 31.1589C15.4736 32.7897 15.2107 34.562 15.3837 36.3187C15.5567 38.0754 16.1603 39.7623 17.141 41.23C18.1217 42.6977 19.4493 43.9009 21.0061 44.733C22.5629 45.565 24.3009 46.0002 26.0661 46.0001C28.1888 46 30.2637 45.3704 32.0286 44.1911C33.7935 43.0118 35.1691 41.3357 35.9815 39.3746C36.7939 37.4136 37.0066 35.2557 36.5927 33.1738C36.2792 31.5971 35.617 30.1176 34.6622 28.8403L42.9328 20.5686V24.5335C42.9328 24.9402 43.0944 25.3302 43.3819 25.6177ZM26.0661 27.6001C24.2924 27.6001 22.5736 28.215 21.2025 29.3402C19.8314 30.4654 18.8929 32.0311 18.5467 33.7707C18.2006 35.5103 18.4684 37.3161 19.3044 38.8804C20.1404 40.4447 21.4929 41.6707 23.1315 42.3496C24.7701 43.0285 26.5935 43.1182 28.2908 42.6035C29.9882 42.0888 31.4545 41.0015 32.4401 39.5269C33.4257 38.0523 33.8695 36.2815 33.6959 34.5163C33.5223 32.7512 32.742 31.1008 31.488 29.8464C30.7775 29.1324 29.9325 28.5662 29.0019 28.1807C28.0713 27.7951 27.0735 27.5978 26.0661 27.6001Z" fill="#99D4FF"/>
</svg>
