<svg width="46" height="46" viewBox="0 0 46 46" fill="none" xmlns="http://www.w3.org/2000/svg">
<path d="M34.5164 1.95662L34.6365 2.55699C34.7707 3.22771 35.2173 3.79392 35.8383 4.08056L37.2823 4.74702C38.0281 5.09121 38.8958 5.0443 39.6001 4.62172L40.5075 4.0773C40.9511 3.81112 41.519 3.88103 41.8848 4.24686C42.1868 4.54883 42.2922 4.9955 42.1572 5.40064L41.9192 6.11445C41.8533 6.31217 41.7613 6.50023 41.6457 6.67365L41.4955 6.89896C40.9966 7.64739 40.8711 8.58426 41.1555 9.4376L41.3455 10.0075C41.6288 10.8574 42.4242 11.4307 43.3201 11.4307H43.5101C43.8598 11.4307 44.199 11.5497 44.4721 11.7682L44.5251 11.8105C45.0612 12.2395 45.2249 12.9846 44.9178 13.5988C44.7217 13.991 44.3593 14.2739 43.9313 14.369L43.4284 14.4808C42.5979 14.6653 41.9151 15.2536 41.6097 16.0476L41.0915 17.3951C40.8612 17.9939 41.045 18.6729 41.546 19.0737C41.8953 19.3531 42.0987 19.7762 42.0987 20.2236V20.7063C42.0987 21.0194 41.9972 21.324 41.8094 21.5744C41.4751 22.0201 40.9146 22.2342 40.3683 22.125L40.2566 22.1026C40.0015 22.0516 39.7623 21.9402 39.5591 21.7776L39.4533 21.6929C38.847 21.2079 38.0289 21.0811 37.3043 21.3598L36.0592 21.8387C35.304 22.1292 34.7445 22.7786 34.569 23.5684L34.4502 24.103C34.3514 24.5472 34.0397 24.914 33.6171 25.083C33.1708 25.2616 32.6637 25.1945 32.2792 24.9061L32.215 24.858C31.9357 24.6485 31.737 24.3493 31.6523 24.0106L31.5459 23.5847C31.3434 22.7748 30.7848 22.1003 30.0268 21.7505L28.8371 21.2014C28.0946 20.8587 27.2171 21.0152 26.6388 21.5935L26.5013 21.731C26.1418 22.0904 25.6309 22.2542 25.1295 22.1706L25.0428 22.1562C24.5541 22.0747 24.1434 21.7441 23.9594 21.2841C23.7948 20.8726 23.832 20.4079 24.06 20.0278L24.4922 19.3076C25.0395 18.3954 25.0828 17.2668 24.6071 16.3154L24.1724 15.446C23.8772 14.8555 23.2998 14.4576 22.6429 14.3919L21.9759 14.3252C21.3709 14.2647 20.9102 13.7556 20.9102 13.1476C20.9102 12.625 21.253 12.1642 21.7536 12.0141L22.6138 11.756C23.3001 11.5501 23.8579 11.0472 24.1335 10.3857L24.5921 9.28512C24.911 8.51984 24.8972 7.65643 24.5542 6.90169L24.0817 5.86228C23.851 5.35466 23.9593 4.75717 24.3536 4.3629C24.7876 3.92887 25.4613 3.84593 25.9877 4.16173L26.8466 4.67707C27.5025 5.07065 28.2978 5.15795 29.0235 4.91603L29.875 4.63218C30.7162 4.35179 31.3559 3.66106 31.5709 2.80085L31.7981 1.89194C31.9532 1.27161 32.5106 0.836426 33.15 0.836426C33.8143 0.836426 34.3862 1.30528 34.5164 1.95662Z" fill="url(#paint0_linear_12129_4368)"/>
<circle cx="32.8984" cy="8.3637" r="1.67278" fill="white"/>
<circle cx="27.8798" cy="12.8246" r="1.67278" fill="white"/>
<circle cx="32.8984" cy="17.2856" r="1.67278" fill="white"/>
<circle cx="37.3583" cy="12.8246" r="1.67278" fill="white"/>
<path d="M34.0274 27.3671C32.1145 33.3411 28.112 38.4253 22.754 41.6873L18.4006 44.3372L14.0471 41.6873C10.226 39.3614 7.06774 36.0913 4.87614 32.1916C2.68454 28.2919 1.53337 23.8939 1.53338 19.4205V7.66693H2.28519C7.75649 7.65757 13.0718 5.84281 17.4064 2.50422L18.4006 1.73575L19.3948 2.50422C20.5199 3.37309 21.7177 4.14358 22.9749 4.80715C22.8791 5.20536 22.887 5.6215 22.9979 6.01576C23.1089 6.41003 23.3191 6.76923 23.6086 7.05902L23.7606 7.21104C22.0151 6.38826 20.3931 5.32585 18.9414 4.05459L18.9052 4.023C18.7712 3.90581 18.6005 3.83892 18.4226 3.8338C18.2446 3.82869 18.0704 3.88567 17.9298 3.99497L16.8697 4.81959C13.2156 7.65209 8.72526 9.19275 4.10187 9.20032H3.83345C3.63012 9.20032 3.43511 9.28109 3.29132 9.42488C3.14754 9.56866 3.06677 9.76367 3.06676 9.96701V19.5636C3.06566 23.584 4.04543 27.5439 5.92109 31.0999C7.79674 34.6559 10.5116 37.7006 13.8303 39.97L17.9676 42.8008C18.0952 42.888 18.2461 42.9347 18.4006 42.9347C18.5551 42.9347 18.706 42.888 18.8335 42.8008L22.9709 39.97C27.2899 37.0275 30.5585 32.7849 32.3018 27.8582L30.8573 27.3436C29.2221 31.9649 26.1562 35.9445 22.105 38.7044L18.4006 41.2391L14.6962 38.7044C11.5833 36.5758 9.03681 33.72 7.27747 30.3845C5.51814 27.049 4.59912 23.3346 4.60015 19.5636V10.728C9.39253 10.6131 14.0222 8.96668 17.8112 6.02999L18.378 5.58904C20.0382 6.96757 21.8901 8.09729 23.8755 8.9427C23.6155 9.51869 23.4118 10.1185 23.2672 10.7337L22.2339 10.7337C21.866 10.7341 21.5036 10.8226 21.177 10.9919C20.8504 11.1611 20.5691 11.4062 20.3567 11.7065C20.1442 12.0068 20.0069 12.3536 19.956 12.718C19.9052 13.0823 19.9424 13.4535 20.0646 13.8005H16.1005C15.8972 13.8005 15.7022 13.8812 15.5584 14.025C15.4146 14.1688 15.3338 14.3638 15.3338 14.5672V19.934H9.96698C9.76364 19.934 9.56863 20.0148 9.42485 20.1586C9.28107 20.3023 9.20029 20.4973 9.20029 20.7007V25.3008C9.20029 25.5042 9.28107 25.6992 9.42485 25.843C9.56863 25.9867 9.76364 26.0675 9.96698 26.0675H15.3338V31.4344C15.3338 31.6377 15.4146 31.8327 15.5584 31.9765C15.7022 32.1203 15.8972 32.201 16.1005 32.201H20.7007C20.904 32.201 21.099 32.1203 21.2428 31.9765C21.3866 31.8327 21.4673 31.6377 21.4673 31.4344V26.0675H26.8342C27.0375 26.0675 27.2325 25.9867 27.3763 25.843C27.5201 25.6992 27.6009 25.5042 27.6009 25.3008V21.785L27.8171 21.5688C28.7 22.1049 29.662 22.4983 30.6676 22.7343V23.7674C30.6676 24.3775 30.91 24.9625 31.3413 25.3938C31.7727 25.8252 32.3577 26.0675 32.9677 26.0675C33.5777 26.0675 34.1628 25.8252 34.5941 25.3938C35.0255 24.9625 35.2678 24.3775 35.2678 23.7674V22.7343C36.2734 22.4983 37.2354 22.1049 38.1184 21.5688L38.9424 22.3928C39.3913 22.8413 39.9999 23.0932 40.6344 23.0931C41.2689 23.0929 41.8774 22.8408 42.326 22.3922C42.7747 21.9435 43.0268 21.335 43.027 20.7005C43.0271 20.066 42.7753 19.4574 42.3268 19.0085L41.5028 18.1845C42.039 17.3013 42.4323 16.339 42.6683 15.3331L43.701 15.3334H43.7017C44.3114 15.333 44.896 15.0905 45.3269 14.6593C45.7579 14.228 46 13.6432 46 13.0335C46 12.4238 45.7579 11.8391 45.3269 11.4078C44.8959 10.9765 44.3113 10.7341 43.7016 10.7337L42.6682 10.7337C42.4322 9.72803 42.0389 8.766 41.5028 7.88308L42.3267 7.05906C42.549 6.83685 42.7252 6.57304 42.8455 6.28269C42.9658 5.99235 43.0277 5.68116 43.0277 5.3669C43.0277 5.05263 42.9658 4.74145 42.8455 4.4511C42.7253 4.16076 42.549 3.89694 42.3268 3.67472C42.1045 3.4525 41.8407 3.27623 41.5504 3.15596C41.2601 3.0357 40.9489 2.97379 40.6346 2.97379C40.3203 2.97379 40.0091 3.03569 39.7188 3.15595C39.4285 3.27621 39.1646 3.45248 38.9424 3.6747L38.1185 4.49871C37.2355 3.96259 36.2734 3.56927 35.2678 3.33329V2.3001C35.2678 1.69008 35.0255 1.10505 34.5941 0.673699C34.1628 0.242352 33.5777 2.33976e-05 32.9677 2.33976e-05C32.3577 2.33976e-05 31.7727 0.242352 31.3413 0.673699C30.91 1.10505 30.6676 1.69008 30.6676 2.3001V3.33333C29.6622 3.56965 28.7002 3.96299 27.8173 4.49886L26.993 3.67466C26.5747 3.25744 26.017 3.00944 25.427 2.97828C24.837 2.94711 24.2563 3.13498 23.7964 3.50581C22.5787 2.87127 21.4195 2.13011 20.3326 1.29101L18.8695 0.160109C18.7352 0.0563121 18.5703 0 18.4006 0C18.2309 0 18.066 0.0563121 17.9317 0.160109L16.4686 1.29101C12.4028 4.42257 7.41718 6.12479 2.28519 6.13355H0.766691C0.563353 6.13355 0.368343 6.21433 0.224561 6.35811C0.0807787 6.50189 2.03359e-06 6.6969 2.34428e-10 6.90024V19.4205C-1.95189e-05 24.157 1.21887 28.8138 3.5394 32.9429C5.85993 37.072 9.20402 40.5344 13.2499 42.9971L18.002 45.8897C18.1221 45.9628 18.26 46.0015 18.4006 46.0015C18.5412 46.0015 18.6791 45.9628 18.7992 45.8897L23.5512 42.9971C29.2244 39.5433 33.4623 34.1601 35.4878 27.8347L34.0274 27.3671ZM23.6087 19.0085C23.348 19.2684 23.151 19.5852 23.0333 19.934H21.4673V15.203C21.7135 15.2896 21.9727 15.3337 22.2337 15.3334H22.2344L23.2671 15.3331C23.5031 16.339 23.8964 17.3013 24.4327 18.1845L23.6087 19.0085ZM20.7007 24.5341C20.4973 24.5341 20.3023 24.6149 20.1585 24.7587C20.0147 24.9025 19.934 25.0975 19.934 25.3008V30.6677H16.8672V25.3008C16.8672 25.0975 16.7864 24.9025 16.6426 24.7587C16.4989 24.6149 16.3038 24.5341 16.1005 24.5341H10.7337V21.4674H16.1005C16.3038 21.4674 16.4989 21.3866 16.6426 21.2428C16.7864 21.099 16.8672 20.904 16.8672 20.7007V15.3338H19.934V20.7007C19.934 20.904 20.0147 21.099 20.1585 21.2428C20.3023 21.3866 20.4973 21.4674 20.7007 21.4674H23.0333C23.2371 22.0684 23.671 22.564 24.2399 22.8454C24.8088 23.1268 25.4661 23.171 26.0675 22.9682V24.5341H20.7007ZM24.6928 4.75899C24.8542 4.59798 25.0728 4.50755 25.3008 4.50753C25.5287 4.50751 25.7474 4.59791 25.9088 4.7589L27.0542 5.9044C27.2132 6.06246 27.422 6.16063 27.6451 6.18223C27.8683 6.20383 28.092 6.14752 28.2784 6.02288C29.2667 5.35794 30.3861 4.91259 31.5611 4.71683C31.74 4.68683 31.9024 4.59441 32.0196 4.45597C32.1367 4.31754 32.201 4.14206 32.201 3.96071V2.3001C32.201 2.09676 32.2818 1.90175 32.4256 1.75796C32.5694 1.61418 32.7644 1.53341 32.9677 1.53341C33.1711 1.53341 33.3661 1.61418 33.5098 1.75796C33.6536 1.90175 33.7344 2.09676 33.7344 2.3001V3.96071C33.7344 4.14206 33.7987 4.31754 33.9158 4.45597C34.033 4.59441 34.1954 4.68683 34.3743 4.71683C35.6002 4.92078 36.7649 5.39647 37.7831 6.10903C37.9308 6.2119 38.1099 6.25957 38.2891 6.24368C38.4684 6.22779 38.6363 6.14937 38.7636 6.02213L40.0268 4.75894C40.188 4.59791 40.4066 4.5075 40.6345 4.50759C40.8624 4.50768 41.081 4.59826 41.2421 4.75941C41.4033 4.92057 41.4938 5.13912 41.4939 5.36702C41.494 5.59492 41.4035 5.81352 41.2425 5.97478L39.9793 7.23796C39.8521 7.36521 39.7736 7.53316 39.7578 7.71241C39.7419 7.89166 39.7896 8.07078 39.8925 8.21841C40.6051 9.23656 41.0808 10.4013 41.2847 11.6272C41.3147 11.806 41.4071 11.9685 41.5456 12.0856C41.684 12.2027 41.8595 12.267 42.0408 12.267L43.7016 12.2671C43.8023 12.267 43.9021 12.2867 43.9952 12.3252C44.0883 12.3636 44.1729 12.4201 44.2441 12.4913C44.3154 12.5625 44.3719 12.647 44.4105 12.74C44.4491 12.8331 44.4689 12.9328 44.4689 13.0336C44.4689 13.1343 44.4491 13.234 44.4105 13.3271C44.3719 13.4201 44.3154 13.5047 44.2441 13.5758C44.1729 13.647 44.0883 13.7035 43.9952 13.7419C43.9021 13.7804 43.8023 13.8002 43.7016 13.8H43.7014L42.0411 13.7996H42.0409C41.8596 13.7996 41.6841 13.8639 41.5456 13.9811C41.4072 14.0982 41.3148 14.2607 41.2848 14.4395C41.0808 15.6657 40.6051 16.8307 39.8925 17.8492C39.7896 17.9968 39.7419 18.1759 39.7578 18.3552C39.7736 18.5344 39.8521 18.7023 39.9793 18.8296L41.2426 20.0928C41.4034 20.2541 41.4937 20.4727 41.4935 20.7005C41.4933 20.9283 41.4027 21.1467 41.2417 21.3077C41.0806 21.4688 40.8622 21.5594 40.6344 21.5595C40.4066 21.5597 40.1881 21.4694 40.0268 21.3086L38.7636 20.0454C38.6363 19.9182 38.4684 19.8398 38.2891 19.8239C38.1099 19.808 37.9308 19.8556 37.7831 19.9585C36.7649 20.671 35.6002 21.1467 34.3743 21.3508C34.1954 21.3807 34.033 21.4732 33.9158 21.6116C33.7987 21.75 33.7344 21.9255 33.7344 22.1069V23.7674C33.7344 23.9708 33.6536 24.1658 33.5098 24.3096C33.3661 24.4534 33.1711 24.5341 32.9677 24.5341C32.7644 24.5341 32.5694 24.4534 32.4256 24.3096C32.2818 24.1658 32.201 23.9708 32.201 23.7674V22.1069C32.201 21.9255 32.1367 21.75 32.0196 21.6116C31.9024 21.4732 31.74 21.3807 31.5611 21.3508C30.3352 21.1467 29.1705 20.671 28.1523 19.9585C28.0047 19.8556 27.8255 19.8079 27.6463 19.8238C27.467 19.8397 27.2991 19.9182 27.1719 20.0454L25.9087 21.3086C25.8289 21.3885 25.7341 21.4519 25.6298 21.4952C25.5254 21.5385 25.4136 21.5608 25.3006 21.5608C25.1877 21.5608 25.0759 21.5386 24.9715 21.4954C24.8671 21.4522 24.7723 21.3888 24.6925 21.309C24.6126 21.2291 24.5493 21.1343 24.5061 21.0299C24.4629 20.9256 24.4406 20.8137 24.4407 20.7008C24.4407 20.5878 24.463 20.476 24.5063 20.3717C24.5496 20.2673 24.613 20.1726 24.6929 20.0928L25.9561 18.8295C26.0834 18.7023 26.1618 18.5343 26.1777 18.3551C26.1935 18.1758 26.1459 17.9967 26.043 17.8491C25.3302 16.8307 24.8545 15.6657 24.6506 14.4394C24.6206 14.2606 24.5282 14.0981 24.3898 13.981C24.2514 13.8638 24.0759 13.7995 23.8945 13.7995H23.8943L22.2339 13.8H22.2337C22.0304 13.8 21.8354 13.7192 21.6917 13.5754C21.548 13.4317 21.4673 13.2367 21.4673 13.0334C21.4673 12.8302 21.5481 12.6352 21.6919 12.4915C21.8356 12.3478 22.0306 12.2671 22.2339 12.2671L23.8946 12.267C24.076 12.267 24.2514 12.2027 24.3899 12.0856C24.5283 11.9685 24.6207 11.806 24.6507 11.6272C24.8547 10.4013 25.3304 9.23656 26.043 8.21841C26.1459 8.07078 26.1935 7.89166 26.1777 7.71241C26.1618 7.53316 26.0834 7.36521 25.9561 7.23796L24.6929 5.97478C24.5319 5.81344 24.4415 5.59483 24.4415 5.3669C24.4415 5.13898 24.5319 4.92035 24.6928 4.75899Z" fill="#99D4FF"/>
<path d="M37.5677 15.334C38.0226 15.334 38.4673 15.1991 38.8455 14.9464C39.2237 14.6937 39.5186 14.3344 39.6926 13.9142C39.8667 13.4939 39.9123 13.0314 39.8235 12.5852C39.7348 12.1391 39.5157 11.7292 39.194 11.4076C38.8724 11.0859 38.4625 10.8668 38.0164 10.7781C37.5702 10.6893 37.1077 10.7349 36.6875 10.909C36.2672 11.0831 35.9079 11.3779 35.6552 11.7561C35.4025 12.1344 35.2676 12.579 35.2676 13.034C35.2683 13.6438 35.5108 14.2284 35.942 14.6596C36.3732 15.0908 36.9578 15.3333 37.5677 15.334ZM37.5677 12.2673C37.7193 12.2673 37.8675 12.3122 37.9936 12.3965C38.1197 12.4807 38.218 12.6005 38.276 12.7406C38.334 12.8807 38.3492 13.0348 38.3196 13.1835C38.29 13.3323 38.217 13.4689 38.1098 13.5761C38.0026 13.6833 37.8659 13.7563 37.7172 13.7859C37.5685 13.8155 37.4143 13.8003 37.2743 13.7423C37.1342 13.6843 37.0144 13.586 36.9302 13.4599C36.8459 13.3338 36.801 13.1856 36.801 13.034C36.8012 12.8307 36.882 12.6358 37.0258 12.4921C37.1695 12.3484 37.3644 12.2675 37.5677 12.2673Z" fill="#99D4FF"/>
<path d="M32.968 10.7334C33.423 10.7334 33.8676 10.5985 34.2459 10.3458C34.6241 10.0931 34.9189 9.73386 35.093 9.31357C35.2671 8.89329 35.3127 8.43082 35.2239 7.98465C35.1352 7.53848 34.9161 7.12865 34.5944 6.80698C34.2728 6.48531 33.8629 6.26625 33.4168 6.1775C32.9706 6.08875 32.5081 6.1343 32.0878 6.30838C31.6676 6.48247 31.3083 6.77728 31.0556 7.15552C30.8029 7.53377 30.668 7.97846 30.668 8.43337C30.6687 9.04318 30.9112 9.62781 31.3424 10.059C31.7736 10.4902 32.3582 10.7328 32.968 10.7334ZM32.968 7.66668C33.1197 7.66668 33.2679 7.71165 33.394 7.79589C33.5201 7.88014 33.6183 7.99988 33.6764 8.13997C33.7344 8.28007 33.7496 8.43423 33.72 8.58295C33.6904 8.73167 33.6174 8.86828 33.5102 8.97551C33.403 9.08273 33.2663 9.15575 33.1176 9.18533C32.9689 9.21492 32.8147 9.19973 32.6746 9.1417C32.5345 9.08368 32.4148 8.98541 32.3306 8.85933C32.2463 8.73324 32.2014 8.58501 32.2014 8.43337C32.2016 8.23011 32.2824 8.03523 32.4262 7.8915C32.5699 7.74777 32.7648 7.66692 32.968 7.66668Z" fill="#99D4FF"/>
<path d="M28.3675 15.334C28.8224 15.334 29.2671 15.1991 29.6453 14.9464C30.0236 14.6937 30.3184 14.3344 30.4924 13.9142C30.6665 13.4939 30.7121 13.0314 30.6233 12.5852C30.5346 12.1391 30.3155 11.7292 29.9939 11.4076C29.6722 11.0859 29.2623 10.8668 28.8162 10.7781C28.37 10.6893 27.9075 10.7349 27.4873 10.909C27.067 11.0831 26.7078 11.3779 26.455 11.7561C26.2023 12.1344 26.0674 12.579 26.0674 13.034C26.0681 13.6438 26.3106 14.2284 26.7418 14.6596C27.173 15.0908 27.7576 15.3333 28.3675 15.334ZM28.3675 12.2673C28.5191 12.2673 28.6673 12.3122 28.7934 12.3965C28.9195 12.4807 29.0178 12.6005 29.0758 12.7406C29.1338 12.8807 29.149 13.0348 29.1194 13.1835C29.0898 13.3323 29.0168 13.4689 28.9096 13.5761C28.8024 13.6833 28.6658 13.7563 28.517 13.7859C28.3683 13.8155 28.2142 13.8003 28.0741 13.7423C27.934 13.6843 27.8142 13.586 27.73 13.4599C27.6457 13.3338 27.6008 13.1856 27.6008 13.034C27.601 12.8307 27.6818 12.6358 27.8256 12.4921C27.9693 12.3484 28.1642 12.2675 28.3675 12.2673Z" fill="#99D4FF"/>
<path d="M32.968 15.334C32.5131 15.334 32.0684 15.4689 31.6902 15.7216C31.3119 15.9744 31.0171 16.3336 30.8431 16.7539C30.669 17.1741 30.6234 17.6366 30.7122 18.0828C30.8009 18.5289 31.02 18.9388 31.3416 19.2605C31.6633 19.5821 32.0732 19.8012 32.5193 19.8899C32.9655 19.9787 33.428 19.9331 33.8482 19.759C34.2685 19.585 34.6277 19.2902 34.8805 18.9119C35.1332 18.5337 35.2681 18.089 35.2681 17.6341C35.2674 17.0243 35.0249 16.4396 34.5937 16.0084C34.1625 15.5772 33.5778 15.3347 32.968 15.334ZM32.968 18.4007C32.8164 18.4007 32.6682 18.3558 32.5421 18.2715C32.416 18.1873 32.3177 18.0676 32.2597 17.9275C32.2017 17.7874 32.1865 17.6332 32.2161 17.4845C32.2457 17.3358 32.3187 17.1991 32.4259 17.0919C32.5331 16.9847 32.6697 16.9117 32.8185 16.8821C32.9672 16.8525 33.1213 16.8677 33.2614 16.9257C33.4015 16.9838 33.5213 17.082 33.6055 17.2081C33.6898 17.3342 33.7347 17.4824 33.7347 17.6341C33.7345 17.8373 33.6536 18.0322 33.5099 18.1759C33.3662 18.3197 33.1713 18.4005 32.968 18.4007Z" fill="#99D4FF"/>
<defs>
<linearGradient id="paint0_linear_12129_4368" x1="87.5004" y1="44.5" x2="86.2784" y2="2.17312" gradientUnits="userSpaceOnUse">
<stop stop-color="#50B5FF"/>
<stop offset="0.976584" stop-color="white"/>
</linearGradient>
</defs>
</svg>
