<svg width="50" height="46" viewBox="0 0 50 46" fill="none" xmlns="http://www.w3.org/2000/svg">
<path d="M16.1078 22.1679C16.5635 23.4801 17.5692 24.4976 18.3886 25.6192C19.4453 27.0654 19.9872 28.9334 19.7428 30.94C19.2828 34.6198 16.0709 37.2765 12.4705 37.2765C1.83563 37.2765 0.0116072 23.4694 1.05051 15.5072C1.71667 10.3999 3.23933 4.10307 8.31487 1.69219C9.36963 1.19256 10.5196 0.914995 11.6774 0.819828C15.5396 0.502607 19.3304 3.28622 19.7586 7.25942C19.9741 9.29417 19.379 11.182 18.2608 12.6232C17.7042 13.3405 17.0761 14.0102 16.6801 14.8271C16.1437 15.9341 15.4665 17.6122 15.4644 19.0333C15.4629 20.0396 15.7738 21.206 16.1078 22.1679Z" fill="url(#paint0_linear_12129_4230)"/>
<path d="M33.0152 22.7633C32.5462 23.6842 31.7789 24.4019 31.1074 25.1876C29.829 26.6835 29.1426 28.7276 29.4121 30.94C29.872 34.6198 33.0839 37.2765 36.6844 37.2765C47.3192 37.2765 49.1432 23.4694 48.1043 15.5072C47.4382 10.3999 45.9155 4.10307 40.84 1.69219C39.7852 1.19256 38.6353 0.914995 37.4774 0.819828C33.6153 0.502607 29.8245 3.28622 29.3962 7.25942C29.1657 9.43546 29.8624 11.4435 31.1345 12.9169C31.5646 13.415 32.0299 13.8856 32.3746 14.4462C33.0771 15.5893 34.2 17.7067 34.1016 19.4298C34.0387 20.5302 33.4975 21.8164 33.0152 22.7633Z" fill="url(#paint1_linear_12129_4230)"/>
<path d="M12.4706 38.0694C9.21515 38.0694 6.50608 36.8639 4.41876 34.4864C0.422567 29.935 -0.547337 21.623 0.263957 15.4039C0.907123 10.4767 2.40599 3.62074 7.97481 0.975112C9.0724 0.45487 10.2961 0.136855 11.6125 0.0290001C16.0822 -0.334218 20.0831 2.86813 20.5471 7.17362C20.8302 9.84858 19.8206 12.4799 17.8475 14.2143C17.5184 14.5046 17.018 14.4721 16.7285 14.1422C16.4391 13.8131 16.4716 13.3118 16.8007 13.0232C18.3884 11.6274 19.1989 9.50361 18.9705 7.34174C18.6049 3.94351 15.2931 1.32485 11.7434 1.60876C10.6181 1.70155 9.57916 1.97039 8.65525 2.40737C3.7867 4.71991 2.43216 11.0485 1.83737 15.6085C1.07208 21.4732 1.94206 29.2601 5.61072 33.4395C7.38399 35.4586 9.69177 36.4825 12.4706 36.4825C15.7658 36.4825 18.5533 34.0565 18.9562 30.8407C19.2489 28.437 18.3067 26.1601 16.4351 24.7532C16.0854 24.4899 16.0148 23.9927 16.2781 23.6429C16.5414 23.2932 17.0386 23.2226 17.3884 23.4859C19.6834 25.2116 20.8873 28.1047 20.5304 31.0358C20.0292 35.0471 16.5644 38.0694 12.4706 38.0694Z" fill="#99D4FF"/>
<path d="M23.0019 46.0001C22.5642 46.0001 22.2089 45.6448 22.2089 45.207V27.7583C22.2089 19.976 16.8803 19.8309 16.6535 19.8285C16.2181 19.8261 15.8652 19.4716 15.8652 19.0355C15.8652 18.6025 16.2118 18.2503 16.6424 18.2424C17.0731 18.2345 16.6464 18.2424 16.6464 18.2424C16.6464 18.2424 16.6519 18.2424 16.6543 18.2424C16.6567 18.2424 16.6551 18.2424 16.6567 18.2424C20.733 18.2424 22.2176 12.5562 22.2319 12.4983C22.3389 12.074 22.7711 11.8179 23.1938 11.9226C23.6181 12.0296 23.8759 12.4587 23.7704 12.8838C23.7141 13.1074 22.6284 17.2995 19.5624 19.0601C21.5379 20.0958 23.7942 22.4424 23.7942 27.7583V45.207C23.7942 45.6448 23.4397 46.0001 23.0019 46.0001Z" fill="#99D4FF"/>
<path d="M36.6826 38.0695C32.5849 38.0695 29.124 35.0464 28.6307 31.0367C28.2667 28.1198 29.4626 25.2268 31.7537 23.4884C32.1019 23.2235 32.6007 23.2909 32.8648 23.6407C33.1297 23.9896 33.0615 24.4869 32.7126 24.7517C30.8425 26.1705 29.9051 28.4474 30.2041 30.8416C30.5999 34.059 33.3843 36.4834 36.6818 36.4834C39.4606 36.4834 41.7692 35.4595 43.5417 33.4404C47.2104 29.2618 48.0803 21.474 47.315 15.6094C46.7202 11.0501 45.3665 4.72159 40.4972 2.40825C39.5725 1.97048 38.5336 1.70164 37.4098 1.60965C33.8474 1.32018 30.5491 3.9436 30.1898 7.34263C29.9559 9.49339 30.764 11.614 32.3533 13.0169C32.6816 13.3072 32.7125 13.8084 32.4223 14.1367C32.132 14.465 31.6308 14.496 31.3025 14.2057C29.3286 12.4618 28.323 9.83281 28.6125 7.17291C29.0685 2.86822 33.0647 -0.341266 37.5391 0.0290901C38.8532 0.136152 40.0776 0.45496 41.176 0.975202C46.7456 3.62083 48.2445 10.4776 48.8869 15.404C49.6982 21.6231 48.7283 29.9351 44.7321 34.4865C42.6447 36.864 39.9357 38.0695 36.6802 38.0695H36.6826Z" fill="#99D4FF"/>
<path d="M26.174 45.9999C25.7363 45.9999 25.381 45.6447 25.381 45.2069V27.7581C25.381 22.4423 27.6372 20.0957 29.6127 19.0599C26.5468 17.2994 25.4611 13.1073 25.4048 12.8836C25.2985 12.4586 25.5563 12.0295 25.9813 11.9225C26.4056 11.817 26.837 12.0731 26.9433 12.4982C26.9584 12.5553 28.443 18.2423 32.5185 18.2423C32.9562 18.2423 33.3115 18.5976 33.3115 19.0353C33.3115 19.4731 32.9562 19.8284 32.5185 19.8284C32.2956 19.8308 26.9671 19.9759 26.9671 27.7581V45.2069C26.9671 45.6447 26.6118 45.9999 26.174 45.9999Z" fill="#99D4FF"/>
<path d="M16.6579 19.0363C16.6579 22.2354 14.293 24.8795 11.2152 25.3172C10.7393 25.3847 10.3135 25.0056 10.3135 24.525C10.3135 24.1332 10.6006 23.8017 10.9884 23.7462C13.2946 23.4179 15.0718 21.4313 15.0718 19.0355C15.0718 16.6397 13.2946 14.6531 10.9884 14.3247C10.6006 14.2692 10.3135 13.9377 10.3135 13.546C10.3135 13.0654 10.7393 12.6863 11.2152 12.7537C14.293 13.1907 16.6579 15.8355 16.6579 19.0347V19.0363Z" fill="#99D4FF"/>
<path d="M32.5186 19.0363C32.5186 22.2354 34.8834 24.8795 37.9613 25.3172C38.4371 25.3847 38.863 25.0056 38.863 24.525C38.863 24.1332 38.5759 23.8017 38.1881 23.7462C35.8819 23.4179 34.1047 21.4313 34.1047 19.0355C34.1047 16.6397 35.8819 14.6531 38.1881 14.3247C38.5759 14.2692 38.863 13.9377 38.863 13.546C38.863 13.0654 38.4371 12.6863 37.9613 12.7537C34.8834 13.1907 32.5186 15.8355 32.5186 19.0347V19.0363Z" fill="#99D4FF"/>
<defs>
<linearGradient id="paint0_linear_12129_4230" x1="27.7567" y1="4.75836" x2="4.30056" y2="6.54985" gradientUnits="userSpaceOnUse">
<stop stop-color="#50B5FF"/>
<stop offset="1" stop-color="white"/>
</linearGradient>
<linearGradient id="paint1_linear_12129_4230" x1="67.4098" y1="3.96531" x2="43.4" y2="-8.3567" gradientUnits="userSpaceOnUse">
<stop stop-color="#50B5FF"/>
<stop offset="1" stop-color="white"/>
</linearGradient>
</defs>
</svg>
