<svg width="46" height="46" viewBox="0 0 46 46" fill="none" xmlns="http://www.w3.org/2000/svg">
<path d="M25.4559 12.728C25.0986 13.4425 26.0514 15.1099 26.5724 15.8542L27.0279 16.4616C27.5846 17.2038 28.4582 17.6406 29.386 17.6406C30.0237 17.6406 30.6364 17.4205 31.1818 17.0899C31.717 16.7655 32.2639 16.5188 32.3782 16.7474C32.6015 17.194 34.3879 21.2134 34.6112 23.6697C34.8345 26.126 32.1549 29.6988 30.3685 32.3784C28.9394 34.5221 24.7115 34.9092 22.7763 34.8347L21.1222 34.628C19.9894 34.4864 19.0914 33.6041 18.93 32.4739C18.8206 31.7083 18.3674 31.0347 17.6994 30.6451L17.0977 30.2941C16.4569 29.9203 15.6756 29.8773 14.9977 30.1786C14.4051 30.442 13.7379 30.5255 13.3714 29.9906C13.0247 29.4843 12.5279 28.6292 11.8345 27.2425C9.82483 23.2231 12.7277 17.8639 13.3976 16.3008C13.7801 15.4083 15.5502 14.1595 17.1006 13.2199C18.1742 12.5693 19.4038 12.2321 20.6586 12.1937C23.0101 12.1216 25.7316 12.1765 25.4559 12.728Z" fill="url(#paint0_linear_12129_4182)"/>
<path d="M1.79899 22.9997C1.79899 11.3094 11.3097 1.79869 23 1.79869C26.7913 1.79869 30.4428 2.78849 33.6718 4.6761L32.2398 5.02771C31.758 5.14603 31.4633 5.63248 31.5816 6.11445C31.6823 6.52427 32.0494 6.79881 32.4533 6.79872C32.648 6.79872 32.4734 6.81112 36.0816 5.9346C36.6276 5.80038 36.8995 5.21439 36.7057 4.70862L35.9017 1.43459C35.7834 0.952894 35.2972 0.658325 34.815 0.776368C34.3332 0.894681 34.0385 1.38123 34.1568 1.8631L34.448 3.04901C25.803 -1.93 14.3629 -0.886925 6.73811 6.7379C-1.42411 14.9001 -2.08997 27.4807 4.30089 36.3906C4.47634 36.6353 4.75195 36.7655 5.0317 36.7655C5.74975 36.7655 6.19218 35.9448 5.76089 35.3435C3.16897 31.7299 1.79899 27.4615 1.79899 22.9997Z" fill="#B5E0FF"/>
<path d="M41.6986 9.60875C41.4094 9.20557 40.8482 9.11313 40.445 9.40231C40.0418 9.69149 39.9494 10.2528 40.2386 10.6559C42.8306 14.2695 44.2006 18.5378 44.2006 22.9995C44.2006 34.6898 34.6898 44.2006 22.9995 44.2006C19.2212 44.2006 15.5819 43.2179 12.3611 41.3429L13.7598 40.9995C14.2416 40.8812 14.5364 40.3947 14.418 39.9128C14.2996 39.431 13.8135 39.1364 13.3313 39.2545L9.91804 40.0926C9.41182 40.217 9.13539 40.7336 9.267 41.2086L10.098 44.5925C10.1987 45.0024 10.5657 45.2768 10.9697 45.2768C11.5538 45.2768 11.9815 44.729 11.8429 44.164L11.5438 42.9457C15.0171 44.9479 18.9344 45.9971 22.9996 45.9971C29.1425 45.9971 34.9178 43.6049 39.2615 39.2613C47.4237 31.0992 48.0894 18.5187 41.6986 9.60875Z" fill="#B5E0FF"/>
<path d="M10.5517 20.6736C9.76856 24.176 10.5219 27.8379 12.6266 30.745C11.195 32.5917 11.6115 35.2273 13.4918 36.5547C15.3597 37.8753 17.984 37.4099 19.2582 35.4297C23.4793 36.6675 28.1561 35.598 31.4314 32.4783C32.0738 32.8182 32.7959 33.0012 33.5285 33.0012C35.9977 33.0012 38.0065 30.9927 38.0065 28.5242C38.0065 26.7196 36.8991 25.0984 35.2822 24.4048C35.4878 21.8062 34.8773 19.0763 33.4014 16.7275C34.1189 15.8543 34.5195 14.7538 34.5195 13.6092C34.5195 10.9013 32.3168 8.69824 29.6095 8.69824C27.857 8.69824 26.2392 9.65112 25.3694 11.133C21.8814 10.4006 18.2624 11.1889 15.4208 13.2557C14.6125 12.5446 13.5774 12.1479 12.4721 12.1479C10.003 12.1479 7.99414 14.1567 7.99414 16.6259C7.99414 18.3895 9.01044 19.9465 10.5517 20.6736ZM16.2223 35.4709C14.99 35.6827 13.8146 34.8576 13.6018 33.6191C13.363 32.2292 14.4346 30.9654 15.8369 30.9654C17.4149 30.9654 18.516 32.5452 17.9664 34.024C17.9664 34.0241 17.9664 34.0243 17.9664 34.0244C17.6977 34.7477 17.0582 35.3273 16.2223 35.4709ZM36.2098 28.5241C36.2098 30.3317 34.4398 31.6381 32.6987 31.0728C33.8132 29.6328 34.5811 28.0091 34.9886 26.2774C35.729 26.763 36.2098 27.6036 36.2098 28.5241ZM29.6094 10.4949C31.3261 10.4949 32.7227 11.8921 32.7227 13.6092C32.7227 15.299 31.3506 16.7226 29.6094 16.7226C27.4256 16.7226 25.9232 14.5248 26.6995 12.4979C27.1653 11.2819 28.3433 10.4949 29.6094 10.4949ZM24.759 12.8431C24.2888 15.8387 26.6119 18.5194 29.6094 18.5194C30.4558 18.5194 31.2801 18.3005 32.0075 17.8931C34.1462 21.4749 34.0498 26.0686 31.5575 29.5974C28.8658 33.4095 24.1214 34.9335 19.873 33.7361C20.0538 32.2748 19.4272 30.7929 18.1844 29.9145C16.9408 29.0355 15.3343 28.9397 14.0171 29.5992C11.9686 26.7061 11.5127 23.044 12.6696 19.7968C14.4255 14.8749 19.5168 11.8648 24.759 12.8431ZM12.4721 13.9446C13.0394 13.9446 13.5764 14.1185 14.0233 14.4366C12.7177 15.7135 11.7094 17.2733 11.0786 18.9199C10.2938 18.445 9.79093 17.5865 9.79093 16.6259C9.79084 15.1474 10.9937 13.9446 12.4721 13.9446Z" fill="#99D4FF"/>
<defs>
<linearGradient id="paint0_linear_12129_4182" x1="18.9996" y1="42" x2="37.6543" y2="26.5944" gradientUnits="userSpaceOnUse">
<stop stop-color="#50B5FF"/>
<stop offset="1" stop-color="white"/>
</linearGradient>
</defs>
</svg>
