<svg width="46" height="45" viewBox="0 0 46 45" fill="none" xmlns="http://www.w3.org/2000/svg">
<path d="M25.7199 26.4221L32.1655 15.2581C34.7987 10.6972 33.2214 4.81185 28.6606 2.1788C24.0999 -0.454344 18.2146 1.12259 15.5814 5.68324L8.87891 17.2919L24.9095 26.5477C25.174 26.5033 25.4442 26.4613 25.7199 26.4221Z" fill="white"/>
<path d="M24.91 26.548L8.87929 17.292L2.17685 28.9012C-0.456379 33.4621 1.12074 39.3475 5.68166 41.9805C9.98868 44.4672 15.4765 43.1986 18.2916 39.2087L18.2917 29.8513C18.2917 28.4436 20.9497 27.2133 24.91 26.548Z" fill="url(#paint0_linear_12129_4332)"/>
<path d="M24.9103 26.5478C20.95 27.2131 18.292 28.4435 18.292 29.8513C18.292 31.208 20.7603 32.3997 24.4836 33.0799L39.0539 26.6492C36.9418 26.2521 34.4137 26.0212 31.6967 26.0212C29.5493 26.0212 27.5198 26.1656 25.7206 26.4222C25.4449 26.4613 25.1747 26.5033 24.9103 26.5478Z" fill="white"/>
<path d="M39.0537 26.6492L24.4834 33.0799C26.5659 33.4605 29.041 33.6812 31.6965 33.6812C39.0996 33.6812 45.1012 31.9666 45.1012 29.8512C45.1012 28.512 42.6964 27.3336 39.0537 26.6492Z" fill="white"/>
<path d="M45.1014 29.8513C45.1014 31.9667 39.0999 33.6814 31.6968 33.6814C29.0413 33.6814 26.5662 33.4606 24.4837 33.08C20.7604 32.3998 18.2921 31.208 18.292 29.8514V39.2087V39.4261C18.292 41.5415 24.2936 43.2562 31.6969 43.2562C39.1 43.2562 45.1016 41.5415 45.1016 39.4261L45.1014 29.8513Z" fill="white"/>
<path d="M17.8556 8.03342C17.9971 8.11509 18.1515 8.15399 18.3039 8.15399C18.6144 8.15399 18.9164 7.99281 19.0827 7.70459C19.8276 6.41425 21.0447 5.49758 22.5096 5.12356C22.9903 5.00074 23.2804 4.51154 23.1577 4.03079C23.0349 3.55013 22.5462 3.25984 22.0649 3.38266C20.1274 3.87752 18.5156 5.09337 17.5267 6.80624C17.2787 7.23597 17.4259 7.78536 17.8556 8.03342Z" fill="#CFEBFF"/>
<path d="M24.8037 5.02219C24.8557 5.03126 24.9073 5.03558 24.9584 5.03558C25.3842 5.03558 25.7624 4.73146 25.8412 4.29778C25.9299 3.80957 25.6062 3.34193 25.1181 3.25317C25.1046 3.25074 25.091 3.24849 25.0767 3.24634C24.5868 3.17123 24.1316 3.50716 24.0556 3.9968C23.9798 4.48546 24.3161 4.94376 24.8037 5.02219Z" fill="#CFEBFF"/>
<path d="M46 29.8514C46 28.3519 44.4572 27.1509 41.4147 26.2816C40.7534 26.0927 40.0382 25.9253 39.28 25.7805C39.2371 25.7693 39.1933 25.7614 39.1491 25.7567C36.9389 25.3447 34.3725 25.123 31.6969 25.123C30.2145 25.123 28.7667 25.1919 27.393 25.3225L32.9444 15.7076C34.3378 13.2939 34.7055 10.4726 33.9794 7.76321C33.2534 5.05398 31.5243 2.79449 29.1107 1.40111C24.1094 -1.48629 17.6916 0.233139 14.8043 5.23429L8.10345 16.84C8.10283 16.841 8.10211 16.8418 8.10157 16.8428C8.10103 16.8438 8.10058 16.8448 8.10004 16.8458L1.39913 28.4521C0.00556751 30.8657 -0.361983 33.687 0.363954 36.3964C1.08989 39.1057 2.81902 41.3652 5.23268 42.7585C6.82965 43.6805 8.62302 44.1545 10.442 44.1545C11.2084 44.1545 11.9794 44.0704 12.742 43.9001C14.7715 43.447 16.596 42.4186 18.0108 40.9528C18.7218 41.7631 20.045 42.4479 21.9711 42.9981C24.581 43.7438 28.0348 44.1544 31.6965 44.1544C35.3582 44.1544 38.812 43.7438 41.4218 42.9981C44.4594 42.1303 45.9995 40.9285 45.9995 39.426V29.8568C45.9998 29.855 46 29.8533 46 29.8514ZM44.2032 29.85C44.2032 29.8505 44.2031 29.8509 44.2031 29.8515V29.8539C44.1994 30.1083 43.6053 30.9266 40.9212 31.6937C38.4626 32.396 35.1866 32.783 31.6969 32.783C30.3436 32.783 29.0234 32.7241 27.7695 32.6119L39.1543 27.5872C39.7789 27.7119 40.3715 27.8522 40.9211 28.0092C43.6088 28.777 44.201 29.5968 44.2032 29.85ZM35.7928 27.1067L24.3799 32.1438C23.7028 32.0124 23.0636 31.8623 22.4725 31.6935C19.78 30.9241 19.1904 30.1028 19.1904 29.8512C19.1904 29.5997 19.7801 28.7783 22.4726 28.0089C24.9313 27.3065 28.2073 26.9195 31.6969 26.9195C33.1111 26.9197 34.4889 26.9843 35.7928 27.1067ZM16.3602 6.13264C18.7522 1.98949 24.0691 0.565022 28.2123 2.95702C30.2102 4.11053 31.6421 5.9826 32.2439 8.22825C32.8457 10.474 32.5419 12.8111 31.3884 14.8091L25.1581 25.6C25.1338 25.6038 25.11 25.608 25.0856 25.6118L10.1069 16.9633L16.3602 6.13264ZM6.1312 41.2025C4.13317 40.049 2.70133 38.1769 2.09956 35.9313C1.49778 33.6856 1.80172 31.3485 2.95514 29.3504L9.20853 18.5192L22.4365 26.1569C22.2815 26.1974 22.1284 26.2388 21.9788 26.2815C18.9395 27.1499 17.3971 28.3494 17.3937 29.8465C17.3937 29.8482 17.3935 29.8497 17.3935 29.8514V38.9121C14.7877 42.3629 9.89799 43.3775 6.1312 41.2025ZM40.9285 41.2705C38.4747 41.9716 35.1961 42.3577 31.6967 42.3577C28.1973 42.3577 24.9186 41.9716 22.4648 41.2705C19.7785 40.5031 19.1903 39.6789 19.1903 39.426V32.3045C19.9071 32.7222 20.8375 33.0949 21.9789 33.4211C22.6838 33.6225 23.4513 33.7986 24.2653 33.9497C24.3048 33.9597 24.3449 33.9671 24.3856 33.9716C26.5637 34.3669 29.0777 34.5797 31.6968 34.5797C35.3487 34.5797 38.7999 34.1682 41.4146 33.4212C42.5558 33.0951 43.4861 32.7224 44.203 32.3048V39.4261C44.2031 39.6789 43.6148 40.5032 40.9285 41.2705Z" fill="#99D4FF"/>
<defs>
<linearGradient id="paint0_linear_12129_4332" x1="-3.50024" y1="65.5029" x2="22.0406" y2="61.7873" gradientUnits="userSpaceOnUse">
<stop stop-color="#50B5FF"/>
<stop offset="1" stop-color="white"/>
</linearGradient>
</defs>
</svg>
