<svg width="25" height="26" viewBox="0 0 25 26" fill="none" xmlns="http://www.w3.org/2000/svg">
<path d="M5.75 3.25004L4.125 5.4167C3.80314 5.84585 3.64221 6.06042 3.64595 6.24003C3.6492 6.39633 3.72248 6.54291 3.84557 6.63929C3.98702 6.75004 4.25524 6.75004 4.79167 6.75004H20.2083C20.7448 6.75004 21.013 6.75004 21.1544 6.63929C21.2775 6.54291 21.3508 6.39633 21.3541 6.24003C21.3578 6.06042 21.1969 5.84585 20.875 5.41671L19.25 3.25004M5.75 3.25004C5.93333 3.0056 6.025 2.88338 6.14117 2.79522C6.24406 2.71715 6.36058 2.65889 6.48478 2.62342C6.625 2.58337 6.77778 2.58337 7.08333 2.58337H17.9167C18.2222 2.58337 18.375 2.58337 18.5152 2.62342C18.6394 2.65889 18.7559 2.71715 18.8588 2.79522C18.975 2.88338 19.0667 3.0056 19.25 3.25004M5.75 3.25004L3.79167 5.86115C3.54431 6.19096 3.42063 6.35586 3.33281 6.53746C3.25488 6.6986 3.19804 6.86912 3.1637 7.04479C3.125 7.24276 3.125 7.44889 3.125 7.86115L3.125 20.0834C3.125 21.2501 3.125 21.8335 3.35207 22.2792C3.55181 22.6712 3.87052 22.9899 4.26252 23.1896C4.70817 23.4167 5.29156 23.4167 6.45833 23.4167L18.5417 23.4167C19.7084 23.4167 20.2918 23.4167 20.7375 23.1896C21.1295 22.9899 21.4482 22.6712 21.6479 22.2792C21.875 21.8335 21.875 21.2501 21.875 20.0834V7.86115C21.875 7.44889 21.875 7.24276 21.8363 7.04479C21.802 6.86912 21.7451 6.6986 21.6672 6.53746C21.5794 6.35586 21.4557 6.19096 21.2083 5.86115L19.25 3.25004M16.6667 10.9167C16.6667 12.0218 16.2277 13.0816 15.4463 13.863C14.6649 14.6444 13.6051 15.0834 12.5 15.0834C11.3949 15.0834 10.3351 14.6444 9.55372 13.863C8.77232 13.0816 8.33333 12.0218 8.33333 10.9167" stroke="#FBFBFB" strokeWidth="2.08333" strokeLinecap="round" strokeLinejoin="round"/>
</svg>
