<svg width="25" height="26" viewBox="0 0 25 26" fill="none" xmlns="http://www.w3.org/2000/svg">
<path d="M20.8333 22.375C20.8333 20.9213 20.8333 20.1944 20.6539 19.603C20.2499 18.2713 19.2078 17.2292 17.8761 16.8252C17.2847 16.6458 16.5578 16.6458 15.1041 16.6458H9.8958C8.44208 16.6458 7.71522 16.6458 7.12377 16.8252C5.7921 17.2292 4.75 18.2713 4.34604 19.603C4.16663 20.1944 4.16663 20.9213 4.16663 22.375M17.1875 8.3125C17.1875 10.9013 15.0888 13 12.5 13C9.91112 13 7.81246 10.9013 7.81246 8.3125C7.81246 5.72367 9.91112 3.625 12.5 3.625C15.0888 3.625 17.1875 5.72367 17.1875 8.3125Z" stroke="#FBFBFB" stroke-width="2.08333" stroke-linecap="round" stroke-linejoin="round"/>
</svg>
