<svg width="51" height="44" viewBox="0 0 51 44" fill="none" xmlns="http://www.w3.org/2000/svg">
<g filter="url(#filter0_i_15169_41206)">
<path d="M29.536 43.0662L48.984 33.0893C49.9148 32.6239 50.3807 31.7276 50.3819 30.8308V29.5664H1V30.8308C1.00115 31.7276 1.46711 32.6239 2.39788 33.0893L21.8459 43.0662C24.2664 44.2764 27.1155 44.2764 29.536 43.0662Z" fill="url(#paint0_linear_15169_41206)"/>
</g>
<g filter="url(#filter1_i_15169_41206)">
<path d="M21.8459 17.5796C24.2664 16.3693 27.1155 16.3693 29.536 17.5796L48.984 27.3036C50.8479 28.2355 50.8479 30.8953 48.984 31.8272L29.536 41.5512C27.1155 42.7615 24.2664 42.7615 21.8459 41.5512L2.39788 31.8272C0.534041 30.8953 0.534038 28.2355 2.39788 27.3036L21.8459 17.5796Z" fill="url(#paint1_radial_15169_41206)"/>
</g>
<g filter="url(#filter2_f_15169_41206)">
<path d="M29.5361 41.5533L48.9841 31.8293C49.8325 31.4051 50.2947 30.6229 50.3707 29.8086C49.8134 31.084 49.5824 31.161 48.8778 31.5802L29.4759 41.1794C28.9234 41.4269 27.4219 42.0701 25.5942 42.0701C23.7666 42.0701 22.3699 41.4269 21.882 41.1794C15.6495 38.0572 2.99825 31.881 2.39792 31.5611C1.79758 31.2413 1.26812 30.5202 1.07843 30.1997C1.24686 30.8665 1.68669 31.4737 2.39792 31.8293L21.8459 41.5533C24.2664 42.7636 27.1155 42.7636 29.5361 41.5533Z" fill="url(#paint2_linear_15169_41206)"/>
</g>
<g filter="url(#filter3_bi_15169_41206)">
<path d="M21.8459 9.24364C24.2664 8.03337 27.1155 8.03337 29.536 9.24364L48.984 18.9676C50.8479 19.8995 50.8479 22.5593 48.984 23.4913L29.536 33.2153C27.1155 34.4255 24.2664 34.4255 21.8459 33.2153L2.39788 23.4913C0.534041 22.5594 0.534038 19.8995 2.39788 18.9676L21.8459 9.24364Z" fill="#E4E8F3" fill-opacity="0.4"/>
</g>
<g filter="url(#filter4_bi_15169_41206)">
<path d="M1 21.2305V22.4949C1.00115 23.3917 1.46711 24.288 2.39788 24.7534L21.8459 34.7302C24.2664 35.9405 27.1155 35.9405 29.536 34.7302L48.984 24.7534C49.9148 24.288 50.3807 23.3917 50.3819 22.4949V21.236C50.38 22.1321 49.914 23.0273 48.984 23.4923L29.536 33.2163C27.1155 34.4265 24.2664 34.4265 21.8459 33.2163L2.39788 23.4923C1.46596 23.0263 1 22.1284 1 21.2305Z" fill="#E4E8F3" fill-opacity="0.4"/>
</g>
<g filter="url(#filter5_f_15169_41206)">
<path d="M29.5361 33.2173L48.9841 23.4934C49.8325 23.0692 50.2947 22.287 50.3707 21.4727C49.8134 22.748 49.5824 22.8251 48.8778 23.2442L29.4759 32.8435C28.9234 33.091 27.4219 33.7342 25.5942 33.7342C23.7666 33.7342 22.3699 33.091 21.882 32.8435C15.6495 29.7212 2.99825 23.545 2.39792 23.2252C1.79758 22.9054 1.26812 22.1843 1.07843 21.8637C1.24686 22.5305 1.68669 23.1377 2.39792 23.4934L21.8459 33.2173C24.2664 34.4276 27.1155 34.4276 29.5361 33.2173Z" fill="url(#paint3_linear_15169_41206)"/>
</g>
<g filter="url(#filter6_bi_15169_41206)">
<path d="M21.8459 0.907705C24.2664 -0.302567 27.1155 -0.302569 29.536 0.907703L48.984 10.6317C50.8479 11.5636 50.8479 14.2234 48.984 15.1553L29.536 24.8793C27.1155 26.0896 24.2664 26.0896 21.8459 24.8793L2.39788 15.1553C0.534041 14.2234 0.534038 11.5636 2.39788 10.6317L21.8459 0.907705Z" fill="#E4E8F3" fill-opacity="0.4"/>
</g>
<g filter="url(#filter7_bi_15169_41206)">
<path d="M1 12.8945V14.1589C1.00115 15.0557 1.46711 15.952 2.39788 16.4174L21.8459 26.3943C24.2664 27.6046 27.1155 27.6046 29.536 26.3943L48.984 16.4174C49.9148 15.952 50.3807 15.0557 50.3819 14.1589V12.9C50.38 13.7961 49.914 14.6913 48.984 15.1563L29.536 24.8803C27.1155 26.0906 24.2664 26.0906 21.8459 24.8803L2.39788 15.1564C1.46596 14.6904 1 13.7925 1 12.8945Z" fill="#E4E8F3" fill-opacity="0.4"/>
</g>
<g filter="url(#filter8_f_15169_41206)">
<path d="M29.5361 24.8814L48.9841 15.1574C49.8325 14.7332 50.2947 13.951 50.3707 13.1367C49.8134 14.4121 49.5824 14.4891 48.8778 14.9083L29.4759 24.5075C28.9234 24.755 27.4219 25.3983 25.5942 25.3983C23.7666 25.3983 22.3699 24.755 21.882 24.5075C15.6495 21.3853 2.99825 15.2091 2.39792 14.8893C1.79758 14.5694 1.26812 13.8484 1.07843 13.5278C1.24686 14.1946 1.68669 14.8018 2.39792 15.1574L21.8459 24.8814C24.2664 26.0917 27.1155 26.0917 29.5361 24.8814Z" fill="url(#paint4_linear_15169_41206)"/>
</g>
<defs>
<filter id="filter0_i_15169_41206" x="1" y="29.44" width="49.3819" height="14.5346" filterUnits="userSpaceOnUse" color-interpolation-filters="sRGB">
<feFlood flood-opacity="0" result="BackgroundImageFix"/>
<feBlend mode="normal" in="SourceGraphic" in2="BackgroundImageFix" result="shape"/>
<feColorMatrix in="SourceAlpha" type="matrix" values="0 0 0 0 0 0 0 0 0 0 0 0 0 0 0 0 0 0 127 0" result="hardAlpha"/>
<feOffset dy="-0.12644"/>
<feGaussianBlur stdDeviation="0.12644"/>
<feComposite in2="hardAlpha" operator="arithmetic" k2="-1" k3="1"/>
<feColorMatrix type="matrix" values="0 0 0 0 0 0 0 0 0 0 0 0 0 0 0 0 0 0 0.15 0"/>
<feBlend mode="darken" in2="shape" result="effect1_innerShadow_15169_41206"/>
</filter>
<filter id="filter1_i_15169_41206" x="1" y="16.6719" width="49.3819" height="25.9135" filterUnits="userSpaceOnUse" color-interpolation-filters="sRGB">
<feFlood flood-opacity="0" result="BackgroundImageFix"/>
<feBlend mode="normal" in="SourceGraphic" in2="BackgroundImageFix" result="shape"/>
<feColorMatrix in="SourceAlpha" type="matrix" values="0 0 0 0 0 0 0 0 0 0 0 0 0 0 0 0 0 0 127 0" result="hardAlpha"/>
<feOffset dy="0.12644"/>
<feGaussianBlur stdDeviation="0.12644"/>
<feComposite in2="hardAlpha" operator="arithmetic" k2="-1" k3="1"/>
<feColorMatrix type="matrix" values="0 0 0 0 0 0 0 0 0 0 0 0 0 0 0 0 0 0 0.1 0"/>
<feBlend mode="darken" in2="shape" result="effect1_innerShadow_15169_41206"/>
</filter>
<filter id="filter2_f_15169_41206" x="0.825551" y="29.5557" width="49.7981" height="13.1581" filterUnits="userSpaceOnUse" color-interpolation-filters="sRGB">
<feFlood flood-opacity="0" result="BackgroundImageFix"/>
<feBlend mode="normal" in="SourceGraphic" in2="BackgroundImageFix" result="shape"/>
<feGaussianBlur stdDeviation="0.12644" result="effect1_foregroundBlur_15169_41206"/>
</filter>
<filter id="filter3_bi_15169_41206" x="-4.05758" y="3.27835" width="59.4971" height="35.9023" filterUnits="userSpaceOnUse" color-interpolation-filters="sRGB">
<feFlood flood-opacity="0" result="BackgroundImageFix"/>
<feGaussianBlur in="BackgroundImageFix" stdDeviation="2.52879"/>
<feComposite in2="SourceAlpha" operator="in" result="effect1_backgroundBlur_15169_41206"/>
<feBlend mode="normal" in="SourceGraphic" in2="effect1_backgroundBlur_15169_41206" result="shape"/>
<feColorMatrix in="SourceAlpha" type="matrix" values="0 0 0 0 0 0 0 0 0 0 0 0 0 0 0 0 0 0 127 0" result="hardAlpha"/>
<feOffset dy="0.12644"/>
<feGaussianBlur stdDeviation="0.12644"/>
<feComposite in2="hardAlpha" operator="arithmetic" k2="-1" k3="1"/>
<feColorMatrix type="matrix" values="0 0 0 0 0.342674 0 0 0 0 0.352133 0 0 0 0 0.579167 0 0 0 0.1 0"/>
<feBlend mode="darken" in2="shape" result="effect2_innerShadow_15169_41206"/>
</filter>
<filter id="filter4_bi_15169_41206" x="-4.05758" y="16.1729" width="59.4971" height="24.5234" filterUnits="userSpaceOnUse" color-interpolation-filters="sRGB">
<feFlood flood-opacity="0" result="BackgroundImageFix"/>
<feGaussianBlur in="BackgroundImageFix" stdDeviation="2.52879"/>
<feComposite in2="SourceAlpha" operator="in" result="effect1_backgroundBlur_15169_41206"/>
<feBlend mode="normal" in="SourceGraphic" in2="effect1_backgroundBlur_15169_41206" result="shape"/>
<feColorMatrix in="SourceAlpha" type="matrix" values="0 0 0 0 0 0 0 0 0 0 0 0 0 0 0 0 0 0 127 0" result="hardAlpha"/>
<feOffset dy="-0.12644"/>
<feGaussianBlur stdDeviation="0.12644"/>
<feComposite in2="hardAlpha" operator="arithmetic" k2="-1" k3="1"/>
<feColorMatrix type="matrix" values="0 0 0 0 0.341176 0 0 0 0 0.352941 0 0 0 0 0.580392 0 0 0 0.25 0"/>
<feBlend mode="darken" in2="shape" result="effect2_innerShadow_15169_41206"/>
</filter>
<filter id="filter5_f_15169_41206" x="0.825551" y="21.2198" width="49.7981" height="13.1581" filterUnits="userSpaceOnUse" color-interpolation-filters="sRGB">
<feFlood flood-opacity="0" result="BackgroundImageFix"/>
<feBlend mode="normal" in="SourceGraphic" in2="BackgroundImageFix" result="shape"/>
<feGaussianBlur stdDeviation="0.12644" result="effect1_foregroundBlur_15169_41206"/>
</filter>
<filter id="filter6_bi_15169_41206" x="-4.05758" y="-5.05758" width="59.4971" height="35.9023" filterUnits="userSpaceOnUse" color-interpolation-filters="sRGB">
<feFlood flood-opacity="0" result="BackgroundImageFix"/>
<feGaussianBlur in="BackgroundImageFix" stdDeviation="2.52879"/>
<feComposite in2="SourceAlpha" operator="in" result="effect1_backgroundBlur_15169_41206"/>
<feBlend mode="normal" in="SourceGraphic" in2="effect1_backgroundBlur_15169_41206" result="shape"/>
<feColorMatrix in="SourceAlpha" type="matrix" values="0 0 0 0 0 0 0 0 0 0 0 0 0 0 0 0 0 0 127 0" result="hardAlpha"/>
<feOffset dy="0.12644"/>
<feGaussianBlur stdDeviation="0.12644"/>
<feComposite in2="hardAlpha" operator="arithmetic" k2="-1" k3="1"/>
<feColorMatrix type="matrix" values="0 0 0 0 0.342674 0 0 0 0 0.352133 0 0 0 0 0.579167 0 0 0 0.1 0"/>
<feBlend mode="darken" in2="shape" result="effect2_innerShadow_15169_41206"/>
</filter>
<filter id="filter7_bi_15169_41206" x="-4.05758" y="7.83695" width="59.4971" height="24.5234" filterUnits="userSpaceOnUse" color-interpolation-filters="sRGB">
<feFlood flood-opacity="0" result="BackgroundImageFix"/>
<feGaussianBlur in="BackgroundImageFix" stdDeviation="2.52879"/>
<feComposite in2="SourceAlpha" operator="in" result="effect1_backgroundBlur_15169_41206"/>
<feBlend mode="normal" in="SourceGraphic" in2="effect1_backgroundBlur_15169_41206" result="shape"/>
<feColorMatrix in="SourceAlpha" type="matrix" values="0 0 0 0 0 0 0 0 0 0 0 0 0 0 0 0 0 0 127 0" result="hardAlpha"/>
<feOffset dy="-0.12644"/>
<feGaussianBlur stdDeviation="0.12644"/>
<feComposite in2="hardAlpha" operator="arithmetic" k2="-1" k3="1"/>
<feColorMatrix type="matrix" values="0 0 0 0 0.341176 0 0 0 0 0.352941 0 0 0 0 0.580392 0 0 0 0.25 0"/>
<feBlend mode="darken" in2="shape" result="effect2_innerShadow_15169_41206"/>
</filter>
<filter id="filter8_f_15169_41206" x="0.825551" y="12.8838" width="49.7981" height="13.1581" filterUnits="userSpaceOnUse" color-interpolation-filters="sRGB">
<feFlood flood-opacity="0" result="BackgroundImageFix"/>
<feBlend mode="normal" in="SourceGraphic" in2="BackgroundImageFix" result="shape"/>
<feGaussianBlur stdDeviation="0.12644" result="effect1_foregroundBlur_15169_41206"/>
</filter>
<linearGradient id="paint0_linear_15169_41206" x1="1" y1="36.7701" x2="50.3819" y2="36.7701" gradientUnits="userSpaceOnUse">
<stop stop-color="#4749CF"/>
<stop offset="0.681928" stop-color="#00A0EA"/>
<stop offset="1" stop-color="#00A0EA"/>
</linearGradient>
<radialGradient id="paint1_radial_15169_41206" cx="0" cy="0" r="1" gradientUnits="userSpaceOnUse" gradientTransform="translate(8.62163 29.5654) scale(31.8628)">
<stop stop-color="#4749CF"/>
<stop offset="1" stop-color="#00A0EA"/>
</radialGradient>
<linearGradient id="paint2_linear_15169_41206" x1="1.07843" y1="29.8086" x2="50.3707" y2="29.8086" gradientUnits="userSpaceOnUse">
<stop stop-color="white" stop-opacity="0.24"/>
<stop offset="0.130208" stop-color="white" stop-opacity="0.865636"/>
<stop offset="0.489583" stop-color="white" stop-opacity="0.494792"/>
<stop offset="1" stop-color="white" stop-opacity="0"/>
</linearGradient>
<linearGradient id="paint3_linear_15169_41206" x1="1.07843" y1="21.4727" x2="50.3707" y2="21.4727" gradientUnits="userSpaceOnUse">
<stop stop-color="white" stop-opacity="0.24"/>
<stop offset="0.130208" stop-color="white" stop-opacity="0.865636"/>
<stop offset="0.489583" stop-color="white" stop-opacity="0.494792"/>
<stop offset="1" stop-color="white" stop-opacity="0"/>
</linearGradient>
<linearGradient id="paint4_linear_15169_41206" x1="1.07843" y1="13.1367" x2="50.3707" y2="13.1367" gradientUnits="userSpaceOnUse">
<stop stop-color="white" stop-opacity="0.24"/>
<stop offset="0.130208" stop-color="white" stop-opacity="0.865636"/>
<stop offset="0.489583" stop-color="white" stop-opacity="0.494792"/>
<stop offset="1" stop-color="white" stop-opacity="0"/>
</linearGradient>
</defs>
</svg>
