<svg width="44" height="44" viewBox="0 0 44 44" fill="none" xmlns="http://www.w3.org/2000/svg">
<g clipPath="url(#clip0_243_3587)">
<path d="M6 0C2.68629 0 0 2.68629 0 6V38C0 41.3137 2.68629 44 6 44H38C41.3137 44 44 41.3137 44 38V6C44 2.68629 41.3137 0 38 0H6Z" fill="#A3E0FF"/>
<mask id="mask0_243_3587" style="mask-type:luminance" maskUnits="userSpaceOnUse" x="0" y="0" width="44" height="44">
<path d="M6 0C2.68629 0 0 2.68629 0 6V38C0 41.3137 2.68629 44 6 44H38C41.3137 44 44 41.3137 44 38V6C44 2.68629 41.3137 0 38 0H6Z" fill="white"/>
</mask>
<g mask="url(#mask0_243_3587)">
<path d="M22.652 22.6264V26.9709H26.6701L26.2346 27.4021C24.1126 29.4935 21.1913 29.1943 20.6283 29.1135C16.8518 28.5718 14.6874 25.998 14.6874 22.0497C14.6874 17.5489 17.4759 14.8646 22.1527 14.8646C23.8205 14.8646 25.6211 15.0748 27.0499 16.0181C27.6501 16.4143 28.1759 16.9452 28.5053 17.5974C28.8585 18.2927 28.9514 19.1444 28.9514 19.9179H33.9734C33.9734 19.2818 33.9628 18.635 33.8592 18.0071C33.5777 16.2903 32.6084 14.7083 31.3947 13.5036C30.2448 12.3609 28.8319 11.5065 27.3314 10.9325C25.6822 10.2992 23.9161 10 22.1527 10C14.8866 10 10 14.8404 10 22.0497C10 23.9551 10.316 25.7015 10.9348 27.2377C11.5138 28.6715 12.3981 29.9732 13.4923 30.9892C14.5546 31.9864 15.8347 32.7599 17.2927 33.2881C19.1066 33.9457 21.0559 34.1856 22.9176 33.9862C24.9837 33.7652 26.8826 33.0644 28.399 31.9541C28.6805 31.7492 28.9594 31.5283 29.2143 31.2911L29.626 30.9192V34.0751H34V22.6264H22.6493H22.652Z" fill="#181A1C"/>
</g>
<path d="M0.5 6C0.5 2.96243 2.96243 0.5 6 0.5H38C41.0376 0.5 43.5 2.96243 43.5 6V38C43.5 41.0376 41.0376 43.5 38 43.5H6C2.96243 43.5 0.5 41.0376 0.5 38V6Z" stroke="white" stroke-opacity="0.1"/>
<mask id="mask1_243_3587" style="mask-type:luminance" maskUnits="userSpaceOnUse" x="0" y="0" width="44" height="44">
<path d="M6 0C2.68629 0 0 2.68629 0 6V38C0 41.3137 2.68629 44 6 44H38C41.3137 44 44 41.3137 44 38V6C44 2.68629 41.3137 0 38 0H6Z" fill="white"/>
<path d="M0.5 6C0.5 2.96243 2.96243 0.5 6 0.5H38C41.0376 0.5 43.5 2.96243 43.5 6V38C43.5 41.0376 41.0376 43.5 38 43.5H6C2.96243 43.5 0.5 41.0376 0.5 38V6Z" stroke="white"/>
</mask>
<g mask="url(#mask1_243_3587)">
</g>
</g>
<defs>
<clipPath id="clip0_243_3587">
<rect width="44" height="44" fill="white"/>
</clipPath>
</defs>
</svg>
