<?xml version="1.0" encoding="UTF-8"?>
<svg width="85px" height="20px" viewBox="0 0 85 20" version="1.1" xmlns="http://www.w3.org/2000/svg" xmlns:xlink="http://www.w3.org/1999/xlink">
    <title>Group 11</title>
    <defs>
        <rect id="path-1" x="0" y="0" width="85" height="20"></rect>
    </defs>
    <g id="Desktop" stroke="none" strokeWidth="1" fill="none" fill-rule="evenodd">
        <g id="Select-Blood-Panel" transform="translate(-758, -36)">
            <g id="Layer_1" transform="translate(758, 36)">
                <mask id="mask-2" fill="white">
                    <use xlink:href="#path-1"></use>
                </mask>
                <g id="Clip" fill-rule="nonzero"></g>
                <g id="Group" mask="url(#mask-2)" fill="#181A1C" fill-rule="nonzero">
                    <g transform="translate(81.1467, 16.0896)" id="Vector">
                        <path d="M2.69191904,1.67256274 C2.69191904,1.40609825 2.59798541,1.2241237 2.41439549,1.12880307 C2.2670966,1.05297852 2.09631946,1.05297852 1.9917159,1.05297852 C1.90846001,1.05297852 1.70778649,1.05297852 1.5925091,1.05297852 L1.12072754,1.05297852 L1.12072754,2.85757175 L1.5925091,2.85757175 L1.5925091,2.29214697 C1.69070836,2.29214697 1.8956475,2.29214697 1.98103816,2.29214697 L2.25215767,2.85973859 L2.76663065,2.85973859 L2.43147727,2.17516236 C2.57237186,2.09067362 2.69404937,1.96285786 2.69404937,1.67472958 L2.69191904,1.67256274 Z M2.24788397,1.67256274 C2.24788397,1.75271873 2.21800114,1.80254568 2.15182338,1.82854222 C2.09204992,1.85453875 2.01733205,1.85453935 1.96396289,1.85453935 L1.59037876,1.85453935 L1.59037876,1.49058779 L1.96609323,1.49058779 C2.14327884,1.49058779 2.24575363,1.52091629 2.24575363,1.67256274 L2.24788397,1.67256274 Z"></path>
                        <path d="M1.92769372,0 C0.864580094,0 0,0.877384386 0,1.95624053 C0,3.03509667 0.864580094,3.9124794 1.92769372,3.9124794 C2.99080736,3.9124794 3.85538745,3.03509667 3.85538745,1.95624053 C3.85538745,0.877384386 2.99080736,0 1.92769372,0 Z M3.48820738,1.95624053 C3.48820738,2.82929082 2.7880046,3.53986216 1.92769372,3.53986216 C1.06738285,3.53986216 0.367180067,2.82929082 0.367180067,1.95624053 C0.367180067,1.08319023 1.06738285,0.372617243 1.92769372,0.372617243 C2.7880046,0.372617243 3.48820738,1.08319023 3.48820738,1.95624053 Z"></path>
                    </g>
                </g>
                <g id="Group" mask="url(#mask-2)" fill="#181A1C" fill-rule="nonzero">
                    <g transform="translate(-0.0021, 0)" id="Vector">
                        <path d="M68.6156804,19.9782696 C71.851986,19.9782696 73.0431862,19.8071247 73.4060965,19.7334678 L73.4060965,15.9791361 C73.0688034,15.9986335 72.7549899,16.0181302 72.4625269,16.0376276 C70.4537118,16.1632775 69.4461066,16.2261028 68.884663,15.6910074 C68.5580438,15.379049 68.4171487,14.8872824 68.4171487,14.0445614 L68.4171487,13.5311292 L68.4171487,7.98520201 L73.4060965,7.98520201 L73.4060965,4.826623 L68.4171487,4.826623 L68.4171487,0.320556641 L64.6428769,0.320556641 L64.6428769,4.82445657 L62.5913696,4.82445657 L62.5913696,7.98303517 L64.6428769,7.98303517 L64.6428769,14.4345076 C64.6428769,16.7741958 64.6428781,19.9782696 68.6135435,19.9782696 L68.6156804,19.9782696 Z"></path>
                        <polygon points="56.6759033 4.87646484 60.4288199 4.87646484 60.4288199 19.9782858 56.6759033 19.9782858"></polygon>
                        <polygon points="56.6759033 0 60.4288199 0 60.4288199 3.36438465 56.6759033 3.36438465"></polygon>
                        <polygon points="75.4938965 4.87646484 79.2468131 4.87646484 79.2468131 19.9782858 75.4938965 19.9782858"></polygon>
                        <path d="M33.750657,14.9545335 C33.3813424,15.7712579 32.3353089,16.6811368 29.5131477,16.6811368 C26.6909866,16.6811368 25.4122596,15.6347753 25.1048532,13.3882416 L25.0728331,13.1586061 L37.5356001,13.1586061 C37.7063814,11.3388488 37.5291951,8.22359736 34.8329851,6.21969791 L34.60243,6.059386 C33.2553924,5.10834618 31.5433106,4.62524414 29.5131477,4.62524414 C24.3897085,4.62524414 21.4501343,7.42203783 21.4501343,12.3007207 C21.4501343,17.1794036 24.2381403,19.9761972 29.5131477,19.9761972 C34.0986258,19.9761972 36.8994377,18.1954342 37.426725,14.9523666 L33.750657,14.9523666 L33.750657,14.9545335 Z M25.2713664,10.5069597 C25.8007885,8.76735844 27.1883871,7.92247098 29.5131477,7.92247098 C32.6149632,7.92247098 33.4155003,9.30461972 33.7656019,10.5091258 L33.8403168,10.7669252 L25.1923795,10.7669252 L25.2713664,10.5047937 L25.2713664,10.5069597 Z"></path>
                        <polygon points="75.4938965 0 79.2468131 0 79.2468131 3.36438465 75.4938965 3.36438465"></polygon>
                        <polygon points="51.0678555 4.89599609 46.5869796 16.6074358 45.8889101 16.6074358 41.4080375 4.89599609 37.428833 4.89599609 43.1991064 19.9783192 49.2789202 19.9783192 55.04706 4.89599609"></polygon>
                        <path d="M10.1700284,10.7993828 L10.1700284,14.2915847 L13.3999299,14.2915847 L13.0498283,14.6382049 C11.3441497,16.3193142 8.99590615,16.0788459 8.54333563,16.0138546 C5.50769732,15.5784126 3.76786315,13.5095217 3.76786315,10.3357781 C3.76786315,6.71792669 6.00936778,4.56021443 9.76869208,4.56021443 C11.1093256,4.56021443 12.5566987,4.72919206 13.7052032,5.48742435 C14.1876605,5.80588192 14.6103434,6.23265849 14.8750545,6.75692198 C15.1589784,7.31584748 15.2336953,8.00042268 15.2336953,8.62217313 L19.2705399,8.62217313 C19.2705399,8.11090795 19.2620008,7.59097717 19.1787449,7.08621112 C18.9524597,5.70622837 18.1732701,4.43456462 17.1976817,3.46619371 C16.2733277,2.5476495 15.1376312,1.86090767 13.931488,1.39946913 C12.6057978,0.890370328 11.1861771,0.649902344 9.76869208,0.649902344 C3.92797025,0.649902344 0,4.54071699 0,10.3357781 C0,11.8674073 0.25403725,13.2712203 0.751437875,14.5060557 C1.21681703,15.6585688 1.92769448,16.7049289 2.80721834,17.5216534 C3.66112502,18.3232133 4.69008271,18.9449651 5.86206958,19.3695752 C7.32011522,19.8981715 8.88703361,20.0909783 10.3835051,19.9306663 C12.0443537,19.7530233 13.5707117,19.1897649 14.7896635,18.2972171 C15.0159487,18.1325724 15.2400992,17.9549296 15.4450368,17.7642884 L15.7759263,17.4653288 L15.7759263,20.0021572 L19.2918873,20.0021572 L19.2918873,10.7993828 L10.1678932,10.7993828 L10.1700284,10.7993828 Z"></path>
                    </g>
                </g>
            </g>
        </g>
    </g>
</svg>