<?xml version="1.0" encoding="UTF-8"?>
<svg width="14px" height="16px" viewBox="0 0 14 16" version="1.1" xmlns="http://www.w3.org/2000/svg" xmlns:xlink="http://www.w3.org/1999/xlink">
    <title>Shape</title>
    <g id="Desktop" stroke="none" strokeWidth="1" fill="none" fill-rule="evenodd">
        <g id="Final-Steps" transform="translate(-1027, -752)" fill="#181A1C">
            <g id="Group-6" transform="translate(20, 115)">
                <g id="Group-8" transform="translate(282, 251)">
                    <g id="Group-7-Copy-2" transform="translate(597, 0)">
                        <g id="Button-Disabled" transform="translate(30, 371)">
                            <g id="Group-9" transform="translate(98, 13)">
                                <path d="M0.169587697,5.72488875 C0,6.1956497 0,6.73487181 0,7.81331604 L0,11.6131149 C0,12.5101947 0,12.9586987 0.12364128,13.3658697 C0.233098913,13.7262632 0.412557855,14.0615847 0.651738543,14.352636 C0.921915513,14.6813671 1.29511733,14.9301539 2.0415138,15.4277277 L2.04152813,15.4277277 L3.80551526,16.6037526 L3.80552242,16.6037526 C4.95438344,17.3696695 5.52881395,17.7526279 6.14968515,17.9014129 C6.69840601,18.0328624 7.27033647,18.0328624 7.81905733,17.9014129 C8.4399142,17.7526279 9.01435188,17.3696695 10.1632272,16.6037526 L11.9272287,15.4277277 C12.6735893,14.9301539 13.0468055,14.6813671 13.3170111,14.352636 C13.5561989,14.0615847 13.7356436,13.7262632 13.8451012,13.3658697 C13.9687425,12.9586987 13.9687425,12.5101947 13.9687425,11.6131149 L13.9687425,7.81331604 C13.9687425,6.73487181 13.9687425,6.1956497 13.7991834,5.72488875 C13.6492523,5.30876349 13.40505,4.93298999 13.0856314,4.6270029 C12.7243782,4.28082881 12.231604,4.06183474 11.2461271,3.62383945 L8.84636879,2.55728656 C8.16068262,2.25254806 7.81783954,2.10017916 7.46145752,2.04000111 C7.14562067,1.9866663 6.82312181,1.9866663 6.50728496,2.04000111 C6.15090294,2.10017916 5.80805985,2.25254806 5.12239517,2.55728656 L2.72263685,3.62383945 C1.73713849,4.06183474 1.24439289,4.28082881 0.883075246,4.6270029 C0.563699648,4.93298999 0.319497376,5.30876349 0.169587697,5.72488875 Z M9.87145959,8.78655773 C10.0812773,8.57674721 10.0812773,8.2365761 9.87145959,8.02676559 C9.66164191,7.81694791 9.32152094,7.81694791 9.11170327,8.02676559 L6.26802547,10.8704076 L5.21523359,9.81759419 C5.00541591,9.60784815 4.66524479,9.60784815 4.45543428,9.81759419 C4.24561661,10.0274119 4.24561661,10.3676045 4.45543428,10.5774221 L5.88814731,12.0101137 C6.09796498,12.2199314 6.43808596,12.2199314 6.64790363,12.0101137 L9.87145959,8.78655773 Z" id="Shape"></path>
                            </g>
                        </g>
                    </g>
                </g>
            </g>
        </g>
    </g>
</svg>