<svg width="25" height="26" viewBox="0 0 25 26" fill="none" xmlns="http://www.w3.org/2000/svg">
<path d="M21.3542 8.4301L12.5 13.3491M12.5 13.3491L3.6458 8.4301M12.5 13.3491L12.5 23.245M21.875 17.5768V9.12145C21.875 8.76453 21.875 8.58607 21.8224 8.42691C21.7759 8.2861 21.6999 8.15685 21.5994 8.0478C21.4858 7.92453 21.3298 7.83786 21.0178 7.66452L13.3094 3.38211C13.014 3.21799 12.8663 3.13593 12.7099 3.10375C12.5714 3.07528 12.4286 3.07528 12.2902 3.10375C12.1337 3.13593 11.986 3.21799 11.6906 3.38211L3.98226 7.66453C3.67026 7.83786 3.51426 7.92453 3.40066 8.0478C3.30016 8.15685 3.22411 8.2861 3.17759 8.42691C3.125 8.58608 3.125 8.76454 3.125 9.12146V17.5768C3.125 17.9337 3.125 18.1122 3.17759 18.2713C3.22411 18.4121 3.30016 18.5414 3.40066 18.6504C3.51426 18.7737 3.67026 18.8604 3.98226 19.0337L11.6906 23.3161C11.986 23.4803 12.1337 23.5623 12.2902 23.5945C12.4286 23.623 12.5714 23.623 12.7099 23.5945C12.8663 23.5623 13.014 23.4803 13.3094 23.3161L21.0178 19.0337C21.3298 18.8604 21.4858 18.7737 21.5994 18.6504C21.6999 18.5414 21.7759 18.4121 21.8224 18.2713C21.875 18.1122 21.875 17.9337 21.875 17.5768Z" stroke="white" stroke-width="2.08334" stroke-linecap="round" stroke-linejoin="round"/>
<path d="M17.1875 10.7448L7.8125 5.5365" stroke="white" stroke-width="2.08334" stroke-linecap="round" stroke-linejoin="round"/>
</svg>
