<svg xmlns="http://www.w3.org/2000/svg" width="26" height="26" fill="none"><path stroke="#FBFBFB" stroke-linecap="round" stroke-linejoin="round" stroke-width="2.167" d="m13 9.75-8.598 5.588c-.745.485-1.117.727-1.246 1.034-.113.268-.113.57 0 .84M13 9.75l8.597 5.588c.745.485 1.118.727 1.247 1.034.113.268.113.57 0 .84M13 9.75V2.708m0 13.542-8.598-5.588c-.745-.485-1.117-.727-1.246-1.034a1.083 1.083 0 0 1 0-.84M13 16.25l8.597-5.588c.745-.485 1.118-.727 1.247-1.034.113-.268.113-.57 0-.84M13 16.25v7.042m10.044-5.988-9.1 5.915c-.341.223-.512.334-.697.377a1.084 1.084 0 0 1-.495 0c-.184-.043-.355-.154-.697-.377l-9.1-5.915c-.288-.187-.432-.28-.536-.406a1.083 1.083 0 0 1-.205-.376c-.047-.155-.047-.327-.047-.671v-5.702c0-.344 0-.516.047-.671.043-.138.112-.266.205-.376.104-.125.248-.219.536-.406l9.1-5.915c.342-.223.513-.334.697-.377.163-.038.333-.038.495 0 .185.043.356.154.697.377l9.1 5.915c.289.187.433.28.537.406.093.11.162.238.204.376.048.155.048.327.048.67v5.703c0 .344 0 .515-.048.671a1.082 1.082 0 0 1-.204.376c-.104.125-.248.219-.537.406Z"/></svg>