<svg xmlns="http://www.w3.org/2000/svg" width="19" height="15" fill="none"><path fill="#676D73" d="m2.195 7.935.893.892 1.927-1.92-.885-.892-.405-.405a1.672 1.672 0 0 1-.495-1.2c0-.398.135-.758.367-1.043a1.7 1.7 0 0 1 1.335-.652c.458 0 .878.18 1.208.502l.397.383.893.9 1.935-1.92-.9-.893-.405-.39A4.404 4.404 0 0 0 4.932 0 4.424 4.424 0 0 0 .845 6.135c.225.532.548 1.005.953 1.402l.397.398Z"/><path fill="#464C52" d="m6.613 9.165 2.752-2.738L7.43 4.5 5.015 6.907l-1.927 1.92L4.123 9.87l.892.885.93-.93"/><path fill="#282B2E" d="m11.285 13.17 4.35-4.342-1.935-1.92-4.342 4.335-2.415-2.408-1.928 1.92L7.43 13.17l-.007.008L9.358 15l1.935-1.83h-.008Z"/><path fill="#181A1C" d="M16.918 7.537c.9-.9 1.417-2.28 1.275-3.675-.21-2.115-1.965-3.705-4.095-3.847a4.424 4.424 0 0 0-3.443 1.282L7.43 4.5l1.928 1.927 3.225-3.21c.39-.382.93-.562 1.485-.472.72.112 1.305.705 1.402 1.425a1.698 1.698 0 0 1-.487 1.447L13.7 6.907l1.935 1.92 1.283-1.29Z"/></svg>