<svg xmlns="http://www.w3.org/2000/svg" width="15" height="15" fill="none"><path fill="#181A1C" d="M12.795 6.08c-.755 0-1.371.639-1.371 1.42 0 .781.616 1.42 1.371 1.42s1.372-.639 1.372-1.42c0-.781-.617-1.42-1.372-1.42Zm-3.074.162c-.672 0-1.215.562-1.215 1.258s.543 1.258 1.215 1.258 1.215-.562 1.215-1.258-.543-1.258-1.215-1.258Zm0-3.202c-.672 0-1.215.562-1.215 1.258s.543 1.258 1.215 1.258 1.215-.562 1.215-1.258S10.393 3.04 9.72 3.04Zm0 6.385c-.672 0-1.215.562-1.215 1.258s.543 1.258 1.215 1.258 1.215-.562 1.215-1.258-.543-1.258-1.215-1.258Zm-3.075-3.03c-.589 0-1.068.495-1.068 1.105s.479 1.105 1.068 1.105c.59 0 1.068-.495 1.068-1.105s-.479-1.105-1.068-1.105Zm0-3.193c-.589 0-1.068.496-1.068 1.106 0 .61.479 1.105 1.068 1.105.59 0 1.068-.496 1.068-1.106 0-.61-.479-1.105-1.068-1.105Zm0 6.395c-.589 0-1.068.495-1.068 1.105s.479 1.105 1.068 1.105c.59 0 1.068-.495 1.068-1.105-.01-.61-.479-1.105-1.068-1.105Zm0 3.192c-.589 0-1.068.496-1.068 1.106 0 .61.479 1.105 1.068 1.105.59 0 1.068-.496 1.068-1.105-.01-.61-.479-1.106-1.068-1.106ZM6.646 0c-.589 0-1.068.496-1.068 1.105 0 .61.479 1.106 1.068 1.106.59 0 1.068-.496 1.068-1.106C7.714.495 7.235 0 6.646 0ZM3.572 6.557c-.507 0-.912.419-.912.943s.405.943.912.943c.506 0 .91-.419.91-.943s-.413-.943-.91-.943Zm0 3.183c-.507 0-.912.419-.912.943s.405.943.912.943c.506 0 .91-.419.91-.943s-.413-.943-.91-.943Zm0-6.366c-.507 0-.912.419-.912.943s.405.943.912.943c.506 0 .91-.419.91-.943s-.413-.943-.91-.943ZM.764 6.709A.776.776 0 0 0 0 7.5c0 .438.34.791.764.791a.776.776 0 0 0 .764-.791.776.776 0 0 0-.764-.791Z"/></svg>