<svg xmlns="http://www.w3.org/2000/svg" width="14" height="15" fill="none"><path fill="#181A1C" fill-rule="evenodd" d="M10.007.015C9.25.104 8.385.522 7.85 1.057c-.642.64-1.01 1.45-1.01 2.22 0 .231.001.236.082.265.192.07.754-.035 1.152-.213.944-.423 1.737-1.337 2.011-2.316.079-.28.116-1.02.052-1.013l-.13.015ZM9.302 3.61c-.305.048-.762.174-1.374.377-.276.093-.612.195-.745.228l-.243.061-.295-.074c-.163-.04-.521-.15-.797-.243-.957-.323-1.4-.398-1.993-.337-.954.097-1.916.578-2.538 1.267C.633 5.645.255 6.58.18 7.692c-.116 1.732.515 3.753 1.674 5.36.66.916 1.272 1.513 1.823 1.777.537.258.996.23 2.005-.122.747-.26 1.24-.34 1.769-.286.38.039.63.1 1.146.28.759.263 1.22.333 1.636.245.445-.094.8-.302 1.232-.725a8.703 8.703 0 0 0 1.897-2.828c.076-.189.138-.356.138-.371 0-.015-.12-.086-.266-.158-.995-.486-1.674-1.353-1.862-2.378-.073-.396-.046-1.068.058-1.445.093-.334.315-.773.523-1.032.202-.251.658-.655.917-.81.116-.07.211-.135.212-.144.001-.01-.085-.113-.19-.23-.589-.652-1.35-1.044-2.332-1.2a4.34 4.34 0 0 0-1.258-.015Z" clip-rule="evenodd"/></svg>