<svg width="24" height="25" viewBox="0 0 24 25" fill="none" xmlns="http://www.w3.org/2000/svg">
<path d="M8 14.849C8 14.849 9.5 16.849 12 16.849C14.5 16.849 16 14.849 16 14.849M15 9.849H15.01M9 9.849H9.01M22 12.849C22 18.3718 17.5228 22.849 12 22.849C6.47715 22.849 2 18.3718 2 12.849C2 7.32615 6.47715 2.849 12 2.849C17.5228 2.849 22 7.32615 22 12.849ZM15.5 9.849C15.5 10.1251 15.2761 10.349 15 10.349C14.7239 10.349 14.5 10.1251 14.5 9.849C14.5 9.57286 14.7239 9.349 15 9.349C15.2761 9.349 15.5 9.57286 15.5 9.849ZM9.5 9.849C9.5 10.1251 9.27614 10.349 9 10.349C8.72386 10.349 8.5 10.1251 8.5 9.849C8.5 9.57286 8.72386 9.349 9 9.349C9.27614 9.349 9.5 9.57286 9.5 9.849Z" stroke="white" stroke-width="2" stroke-linecap="round" stroke-linejoin="round"/>
</svg>
