<svg xmlns="http://www.w3.org/2000/svg" width="26" height="26" fill="none"><path fill="#FBFBFB" d="M19.933 4.23V2.6H18.2v1.63H7.8V2.6H6.066v1.63c0 2.041.828 3.89 2.167 5.229l3.541 3.54-3.54 3.542a7.37 7.37 0 0 0-2.168 5.229v1.63H7.8v-1.63h10.4v1.63h1.733v-1.63a7.37 7.37 0 0 0-2.167-5.23L14.226 13l3.54-3.541a7.371 7.371 0 0 0 2.167-5.23ZM8.073 5.963h9.853a5.58 5.58 0 0 1-.995 1.837H9.068a5.613 5.613 0 0 1-.996-1.837Zm9.853 14.073H8.072a5.61 5.61 0 0 1 .996-1.836h7.863c.449.549.783 1.171.995 1.836Zm-2.685-3.57h-4.482l2.24-2.24 2.242 2.24Zm-4.482-6.933h4.482L13 11.774l-2.241-2.24Z"/></svg>