<svg width="24" height="24" viewBox="0 0 24 24" fill="none" xmlns="http://www.w3.org/2000/svg">
<path fill-rule="evenodd" clip-rule="evenodd" d="M18.2239 2.07041C18.0354 2.15908 17.8551 2.37677 17.8161 2.56275C17.7558 2.851 17.8299 3.00225 18.2236 3.39374L18.597 3.76508L16.9916 5.3276L15.3862 6.89011L16.6384 8.0858L17.8907 9.28149L19.512 7.73413L21.1334 6.18676L21.5262 6.54676C21.9452 6.93081 22.0918 6.99508 22.4168 6.93688C22.636 6.89759 22.9324 6.61462 22.9736 6.40538C23.0511 6.01061 23.0988 6.06717 20.9628 4.0229C19.875 2.98188 18.9183 2.0999 18.8368 2.06301C18.6458 1.97646 18.4178 1.97921 18.2239 2.07041ZM5.01019 18.6606L3.7982 19.8232L2.06541 21.3509C1.77597 22.0916 2.54046 21.9918 2.54803 21.999C2.55554 22.0062 3.51033 21.1063 4.66971 19.9993L6.77775 17.9864L6.52504 17.7422C6.38605 17.6078 6.26106 17.4979 6.24724 17.4979C6.23341 17.4979 5.67673 18.0211 5.01019 18.6606Z" stroke="#FBFBFB" strokeWidth="2"/>
</svg>
