<svg width="26" height="26" viewBox="0 0 26 26" fill="none" xmlns="http://www.w3.org/2000/svg">
<path d="M19.9334 4.22993V2.59973H18.2V4.22993H7.79999V2.59973H6.06657V4.22993C6.06657 6.27145 6.89441 8.11979 8.23341 9.45879L11.7744 12.9997L8.23341 16.5409C6.89441 17.8797 6.06657 19.7283 6.06657 21.7695V23.3997H7.79999V21.7695H18.2V23.3997H19.9334V21.7695C19.9334 19.728 19.1056 17.8797 17.7666 16.5409L14.2256 12.9997L17.7666 9.45853C19.1056 8.11953 19.9334 6.27119 19.9334 4.22993ZM8.07247 5.96309H17.9265C17.7143 6.62843 17.3797 7.25035 16.9312 7.79973H9.06775C8.62003 7.25035 8.28567 6.62843 8.07247 5.96309ZM17.9265 20.0361H8.07247C8.28567 19.3708 8.62003 18.7489 9.06775 18.1997H16.9312C17.38 18.7489 17.7143 19.371 17.9265 20.0361ZM15.2412 16.4663H10.7588L13 14.2254L15.2412 16.4663ZM10.7588 9.53315H15.2412L13 11.7744L10.7588 9.53315Z" fill="#FBFBFB"/>
</svg>
