<svg width="26" height="26" viewBox="0 0 26 26" fill="none" xmlns="http://www.w3.org/2000/svg">
<path d="M3.25 8.66663L16.25 8.66663M16.25 8.66663C16.25 10.4616 17.7051 11.9166 19.5 11.9166C21.2949 11.9166 22.75 10.4616 22.75 8.66663C22.75 6.8717 21.2949 5.41663 19.5 5.41663C17.7051 5.41663 16.25 6.8717 16.25 8.66663ZM9.75 17.3333L22.75 17.3333M9.75 17.3333C9.75 19.1282 8.29493 20.5833 6.5 20.5833C4.70507 20.5833 3.25 19.1282 3.25 17.3333C3.25 15.5384 4.70507 14.0833 6.5 14.0833C8.29493 14.0833 9.75 15.5384 9.75 17.3333Z" stroke="#FBFBFB" stroke-width="2.16667" stroke-linecap="round" stroke-linejoin="round"/>
</svg>
