<svg width="25" height="26" viewBox="0 0 25 26" fill="none" xmlns="http://www.w3.org/2000/svg">
<path d="M12.4993 13.3491H12.5097M16.1822 17.0319C11.3006 21.9135 5.69448 24.2219 3.6605 22.1879C1.62652 20.1539 3.93493 14.5478 8.81648 9.66624C13.698 4.78469 19.3042 2.47627 21.3382 4.51025C23.3721 6.54423 21.0637 12.1504 16.1822 17.0319ZM16.1821 9.66605C21.0637 14.5476 23.3721 20.1538 21.3381 22.1877C19.3041 24.2217 13.698 21.9133 8.81644 17.0317C3.93489 12.1502 1.62647 6.54404 3.66045 4.51006C5.69443 2.47608 11.3006 4.7845 16.1821 9.66605ZM13.0202 13.3491C13.0202 13.6367 12.787 13.8699 12.4993 13.8699C12.2117 13.8699 11.9785 13.6367 11.9785 13.3491C11.9785 13.0614 12.2117 12.8283 12.4993 12.8283C12.787 12.8283 13.0202 13.0614 13.0202 13.3491Z" stroke="white" strokeWidth="2.08333" strokeLinecap="round" strokeLinejoin="round"/>
</svg>
