<svg width="17" height="17" viewBox="0 0 17 17" fill="none" xmlns="http://www.w3.org/2000/svg">
<g clip-path="url(#clip0_742_3730)">
<path d="M3.91 1.87008L2.805 3.34341C2.58614 3.63523 2.4767 3.78114 2.47924 3.90328C2.48145 4.00956 2.53129 4.10923 2.61499 4.17477C2.71117 4.25008 2.89356 4.25008 3.25833 4.25008H13.7417C14.1064 4.25008 14.2888 4.25008 14.385 4.17477C14.4687 4.10923 14.5185 4.00956 14.5208 3.90328C14.5233 3.78114 14.4139 3.63523 14.195 3.34341L13.09 1.87008M3.91 1.87008C4.03467 1.70386 4.097 1.62075 4.176 1.56081C4.24596 1.50772 4.32519 1.4681 4.40965 1.44398C4.505 1.41675 4.60889 1.41675 4.81667 1.41675H12.1833C12.3911 1.41675 12.495 1.41675 12.5904 1.44398C12.6748 1.4681 12.754 1.50772 12.824 1.56081C12.903 1.62075 12.9653 1.70386 13.09 1.87008M3.91 1.87008L2.57833 3.64564C2.41013 3.8699 2.32603 3.98204 2.26631 4.10553C2.21332 4.2151 2.17467 4.33105 2.15132 4.45051C2.125 4.58513 2.125 4.7253 2.125 5.00564L2.125 13.3167C2.125 14.1102 2.125 14.5069 2.27941 14.8099C2.41523 15.0765 2.63195 15.2932 2.89851 15.429C3.20155 15.5834 3.59826 15.5834 4.39167 15.5834L12.6083 15.5834C13.4017 15.5834 13.7984 15.5834 14.1015 15.429C14.368 15.2932 14.5848 15.0765 14.7206 14.8099C14.875 14.5069 14.875 14.1102 14.875 13.3167V5.00564C14.875 4.7253 14.875 4.58513 14.8487 4.45051C14.8253 4.33105 14.7867 4.2151 14.7337 4.10553C14.674 3.98204 14.5899 3.86991 14.4217 3.64564L13.09 1.87008M11.3333 7.08341C11.3333 7.83486 11.0348 8.55553 10.5035 9.08688C9.97212 9.61824 9.25145 9.91675 8.5 9.91675C7.74855 9.91675 7.02788 9.61824 6.49653 9.08688C5.96518 8.55553 5.66667 7.83486 5.66667 7.08341" stroke="#FBFBFB" stroke-width="1.41667" stroke-linecap="round" stroke-linejoin="round"/>
</g>
<defs>
<clipPath id="clip0_742_3730">
<rect width="17" height="17" fill="white"/>
</clipPath>
</defs>
</svg>
