<svg width="709" height="543" viewBox="0 0 709 543" fill="none" xmlns="http://www.w3.org/2000/svg">
<path fill-rule="evenodd" clip-rule="evenodd" d="M653.499 569.767L732.583 569.767L732.583 490.683L653.499 490.683L653.499 569.767ZM732.583 572L734.816 572L734.816 569.767L734.816 490.683L734.816 490.591L734.816 488.449L734.816 488.358L734.816 409.274L734.816 409.183L734.816 407.041L734.816 406.95L734.816 327.866L734.816 327.775L734.816 325.633L734.816 325.541L734.816 246.458L734.816 246.367L734.816 244.224L734.816 244.133L734.816 165.05L734.816 164.959L734.816 162.816L734.816 162.726L734.816 83.6423L734.816 83.5504L734.816 81.4089L734.816 81.3169L734.816 2.23328L734.816 -0.000183105L732.583 -0.00018291L653.499 -0.000175997L653.408 -0.000175989L651.266 -0.000175801L651.175 -0.000175793L572.091 -0.00016888L572 -0.000168872L569.858 -0.000168684L569.766 -0.000168676L490.683 -0.000161763L490.592 -0.000161755L488.449 -0.000161567L488.358 -0.000161559L409.274 -0.000154646L409.183 -0.000154638L407.041 -0.00015445L406.95 -0.000154442L327.866 -0.000147529L327.775 -0.000147521L325.633 -0.000147334L325.542 -0.000147326L246.458 -0.000140412L246.367 -0.000140404L244.225 -0.000140217L244.133 -0.000140209L165.05 -0.000133295L164.959 -0.000133287L162.816 -0.0001331L162.725 -0.000133092L83.6416 -0.000126178L83.5506 -0.00012617L81.4081 -0.000125983L81.3171 -0.000125975L2.23353 -0.000119061L1.10293e-05 -0.000118866L1.12246e-05 2.23334L1.81383e-05 81.317L1.81463e-05 81.4089L1.83335e-05 83.5504L1.83416e-05 83.6424L2.52553e-05 162.726L2.52632e-05 162.816L2.54505e-05 164.96L2.54584e-05 165.05L3.23722e-05 244.134L3.23801e-05 244.224L3.25674e-05 246.367L3.25753e-05 246.458L3.94891e-05 325.541L3.94971e-05 325.633L3.96843e-05 327.775L3.96923e-05 327.866L4.6606e-05 406.95L4.6614e-05 407.041L4.68013e-05 409.184L4.68092e-05 409.274L5.37229e-05 488.358L5.37309e-05 488.449L5.39182e-05 490.591L5.39262e-05 490.683L6.08399e-05 569.767L6.10352e-05 572L2.23358 572L81.3172 572L81.4081 572L83.5507 572L83.6417 572L162.725 572L162.816 572L164.959 572L165.05 572L244.134 572L244.225 572L246.367 572L325.633 572L327.775 572L327.866 572L406.95 572L407.041 572L409.184 572L409.275 572L488.358 572L488.449 572L490.592 572L490.683 572L569.766 572L569.858 572L572 572L572.091 572L651.175 572L651.266 572L653.408 572L653.499 572L732.583 572ZM572.091 569.767L651.175 569.767L651.175 490.683L572.091 490.683L572.091 569.767ZM569.766 569.767L490.683 569.767L490.683 490.683L569.766 490.683L569.766 569.767ZM409.275 569.767L488.358 569.767L488.358 490.683L409.274 490.683L409.275 569.767ZM406.95 569.767L327.866 569.767L327.866 490.683L406.95 490.683L406.95 569.767ZM244.134 569.767L165.05 569.767L165.05 490.683L244.134 490.683L244.134 569.767ZM83.6417 569.767L162.725 569.767L162.725 490.683L83.6417 490.683L83.6417 569.767ZM81.3172 569.767L2.23358 569.767L2.23357 490.683L81.3172 490.683L81.3172 569.767ZM653.499 488.358L732.583 488.358L732.583 409.274L653.499 409.274L653.499 488.358ZM732.583 406.95L653.499 406.95L653.499 327.866L732.583 327.866L732.583 406.95ZM653.499 325.541L732.583 325.541L732.583 246.458L653.499 246.458L653.499 325.541ZM732.583 244.133L653.499 244.133L653.499 165.05L732.583 165.05L732.583 244.133ZM653.499 162.726L732.583 162.726L732.583 83.6423L653.499 83.6423L653.499 162.726ZM732.583 81.3169L653.499 81.3169L653.499 2.23328L732.583 2.23328L732.583 81.3169ZM572.091 488.358L651.175 488.358L651.175 409.274L572.091 409.274L572.091 488.358ZM572.091 325.541L651.175 325.541L651.175 246.458L572.091 246.458L572.091 325.541ZM651.175 244.133L572.091 244.133L572.091 165.05L651.175 165.05L651.175 244.133ZM572.091 162.726L651.175 162.726L651.175 83.6423L572.091 83.6423L572.091 162.726ZM651.175 81.3169L572.091 81.3169L572.091 2.23329L651.175 2.23328L651.175 81.3169ZM490.683 488.358L569.766 488.358L569.766 409.274L490.683 409.274L490.683 488.358ZM569.766 406.95L490.683 406.95L490.683 327.866L569.766 327.866L569.766 406.95ZM490.683 325.541L569.766 325.541L569.766 246.458L490.683 246.458L490.683 325.541ZM490.683 162.726L569.766 162.726L569.766 83.6423L490.683 83.6424L490.683 162.726ZM569.766 81.3169L490.683 81.3169L490.683 2.2333L569.766 2.23329L569.766 81.3169ZM409.274 488.358L488.358 488.358L488.358 409.274L409.274 409.274L409.274 488.358ZM488.358 406.95L409.274 406.95L409.274 327.866L488.358 327.866L488.358 406.95ZM409.274 325.541L488.358 325.541L488.358 246.458L409.274 246.458L409.274 325.541ZM488.358 244.133L409.274 244.133L409.274 165.05L488.358 165.05L488.358 244.133ZM409.274 162.726L488.358 162.726L488.358 83.6424L409.274 83.6424L409.274 162.726ZM488.358 81.3169L409.274 81.3169L409.274 2.2333L488.358 2.2333L488.358 81.3169ZM406.95 406.95L327.866 406.95L327.866 327.866L406.95 327.866L406.95 406.95ZM406.95 244.133L327.866 244.133L327.866 165.05L406.95 165.05L406.95 244.133ZM327.866 162.726L406.95 162.726L406.95 83.6424L327.866 83.6424L327.866 162.726ZM406.95 81.3169L327.866 81.3169L327.866 2.23331L406.95 2.23331L406.95 81.3169ZM246.458 488.358L325.542 488.358L325.542 409.274L246.458 409.274L246.458 488.358ZM325.542 406.95L246.458 406.95L246.458 327.866L325.542 327.866L325.542 406.95ZM246.458 325.541L325.542 325.541L325.542 246.458L246.458 246.458L246.458 325.541ZM325.542 244.133L246.458 244.133L246.458 165.05L325.542 165.05L325.542 244.133ZM246.458 162.726L325.542 162.726L325.542 83.6424L246.458 83.6424L246.458 162.726ZM325.542 81.3169L246.458 81.3169L246.458 2.23332L325.542 2.23331L325.542 81.3169ZM165.05 488.358L244.134 488.358L244.134 409.274L165.05 409.274L165.05 488.358ZM244.133 406.95L165.05 406.95L165.05 327.866L244.133 327.866L244.133 406.95ZM165.05 325.541L244.133 325.541L244.133 246.458L165.05 246.458L165.05 325.541ZM244.133 244.133L165.05 244.134L165.05 165.05L244.133 165.05L244.133 244.133ZM165.05 162.726L244.133 162.726L244.133 83.6424L165.05 83.6424L165.05 162.726ZM244.133 81.3169L165.05 81.3169L165.05 2.23333L244.133 2.23332L244.133 81.3169ZM83.6417 488.358L162.725 488.358L162.725 409.274L83.6416 409.274L83.6417 488.358ZM162.725 406.95L83.6416 406.95L83.6416 327.866L162.725 327.866L162.725 406.95ZM83.6416 325.541L162.725 325.541L162.725 246.458L83.6416 246.458L83.6416 325.541ZM162.725 244.134L83.6416 244.134L83.6416 165.05L162.725 165.05L162.725 244.134ZM83.6416 162.726L162.725 162.726L162.725 83.6424L83.6416 83.6424L83.6416 162.726ZM162.725 81.3169L83.6416 81.317L83.6416 2.23333L162.725 2.23333L162.725 81.3169ZM2.23357 488.358L81.3172 488.358L81.3172 409.274L2.23357 409.274L2.23357 488.358ZM81.3172 406.95L2.23357 406.95L2.23356 327.866L81.3172 327.866L81.3172 406.95ZM2.23356 325.541L81.3172 325.541L81.3172 246.458L2.23355 246.458L2.23356 325.541ZM81.3172 244.134L2.23355 244.134L2.23355 165.05L81.3172 165.05L81.3172 244.134ZM2.23355 162.726L81.3172 162.726L81.3172 83.6424L2.23354 83.6424L2.23355 162.726ZM81.3172 81.317L2.23354 81.317L2.23353 2.23334L81.3171 2.23333L81.3172 81.317Z" fill="url(#paint0_linear_1293_11856)"/>
<defs>
<linearGradient id="paint0_linear_1293_11856" x1="1023.5" y1="963.5" x2="367" y2="171" gradientUnits="userSpaceOnUse">
<stop stop-color="white" stop-opacity="0.14"/>
<stop offset="1" stop-color="white" stop-opacity="0"/>
</linearGradient>
</defs>
</svg>
