<svg width="707" height="545" viewBox="0 0 707 545" fill="none" xmlns="http://www.w3.org/2000/svg">
<path fill-rule="evenodd" clip-rule="evenodd" d="M-28 -27H53.4083H55.5506H55.6417H134.725H134.817H136.959H137.05H216.134H216.225H218.367H218.458H297.542H297.633H299.775H299.866H378.95H379.041H381.183H460.449H462.592H462.683H541.766H541.858H544H544.091H623.175H623.266H625.408H625.499H704.583H706.816V-24.7665V54.3171V54.4087V56.5506V56.6421V135.726V135.817V137.959V138.05V217.134V217.225V219.367V219.459V298.542V298.633V300.776V300.867V379.95V380.041V382.184V382.274V461.358V461.45V463.591V463.683V542.767V545H704.583H625.499H625.408H623.266H623.175H544.091H544H541.858H541.766H462.683H462.592H460.449H460.358H381.275H381.183H379.041H378.95H299.866H299.775H297.633H297.542H218.458H218.367H216.225H216.134H137.05H136.959H134.817H134.725H55.6417H55.5506H53.4083H53.3171H-25.7665H-28V542.767V463.683V463.591V461.45V461.358V382.274V382.184V380.041V379.95V300.867V300.776V298.633V298.542V219.459V219.367V217.225V217.134V138.05V137.959V135.817V135.726V56.6421V56.5506V54.4087V-27ZM134.725 -24.7665H55.6417V54.3171H134.725V-24.7665ZM137.05 -24.7665H216.134V54.3171H137.05V-24.7665ZM297.542 -24.7665H218.458V54.3171H297.542V-24.7665ZM299.866 -24.7665H378.95V54.3171H299.866V-24.7665ZM462.683 -24.7665H541.766V54.3171H462.683V-24.7665ZM623.175 -24.7665H544.091V54.3171H623.175V-24.7665ZM625.499 -24.7665H704.583V54.3171H625.499V-24.7665ZM53.3171 56.6421H-25.7665V135.726H53.3171V56.6421ZM-25.7665 138.05H53.3171V217.134H-25.7665V138.05ZM53.3171 219.459H-25.7665V298.542H53.3171V219.459ZM-25.7665 300.867H53.3171V379.95H-25.7665V300.867ZM53.3171 382.274H-25.7665V461.358H53.3171V382.274ZM-25.7665 463.683H53.3171V542.767H-25.7665V463.683ZM134.725 56.6421H55.6417V135.726H134.725V56.6421ZM55.6417 138.05H134.725V217.134H55.6417V138.05ZM134.725 219.459H55.6417V298.542H134.725V219.459ZM55.6417 300.867H134.725V379.95H55.6417V300.867ZM134.725 382.274H55.6417V461.358H134.725V382.274ZM55.6417 463.683H134.725V542.767H55.6417V463.683ZM216.134 56.6421H137.05V135.726H216.134V56.6421ZM137.05 138.05H216.134V217.134H137.05V138.05ZM216.134 219.459H137.05V298.542H216.134V219.459ZM216.134 382.274H137.05V461.358H216.134V382.274ZM137.05 463.683H216.134V542.767H137.05V463.683ZM297.542 56.6421H218.458V135.726H297.542V56.6421ZM218.458 138.05H297.542V217.134H218.458V138.05ZM297.542 219.459H218.458V298.542H297.542V219.459ZM218.458 300.867H297.542V379.95H218.458V300.867ZM297.542 382.274H218.458V461.358H297.542V382.274ZM218.458 463.683H297.542V542.767H218.458V463.683ZM299.866 138.05H378.95V217.134H299.866V138.05ZM299.866 300.867H378.95V379.95H299.866V300.867ZM378.95 382.274H299.866V461.358H378.95V382.274ZM299.866 463.683H378.95V542.767H299.866V463.683ZM460.358 56.6421H381.275V135.726H460.358V56.6421ZM381.275 138.05H460.358V217.134H381.275V138.05ZM460.358 219.459H381.275V298.542H460.358V219.459ZM381.275 300.867H460.358V379.95H381.275V300.867ZM460.358 382.274H381.275V461.358H460.358V382.274ZM381.275 463.683H460.358V542.767H381.275V463.683ZM541.766 56.6421H462.683V135.726H541.766V56.6421ZM462.683 138.05H541.766V217.134H462.683V138.05ZM541.766 219.459H462.683V298.542H541.766V219.459ZM462.683 300.867H541.766V379.95H462.683V300.867ZM541.766 382.274H462.683V461.358H541.766V382.274ZM462.683 463.683H541.766V542.767H462.683V463.683ZM623.175 56.6421H544.091V135.726H623.175V56.6421ZM544.091 138.05H623.175V217.134H544.091V138.05ZM623.175 219.459H544.091V298.542H623.175V219.459ZM544.091 300.867H623.175V379.95H544.091V300.867ZM623.175 382.274H544.091V461.358H623.175V382.274ZM544.091 463.683H623.175V542.767H544.091V463.683ZM704.583 56.6421H625.499V135.726H704.583V56.6421ZM625.499 138.05H704.583V217.134H625.499V138.05ZM704.583 219.459H625.499V298.542H704.583V219.459ZM625.499 300.867H704.583V379.95H625.499V300.867ZM704.583 382.274H625.499V461.358H704.583V382.274ZM625.499 463.683H704.583V542.767H625.499V463.683Z" fill="url(#paint0_linear_1293_11920)"/>
<defs>
<linearGradient id="paint0_linear_1293_11920" x1="-55.9184" y1="-100.591" x2="367.327" y2="389.659" gradientUnits="userSpaceOnUse">
<stop stop-color="white" stop-opacity="0.14"/>
<stop offset="1" stop-color="white" stop-opacity="0"/>
</linearGradient>
</defs>
</svg>
