<svg xmlns="http://www.w3.org/2000/svg" width="22" height="21" fill="none"><path fill="#fff" fill-rule="evenodd" d="M16.894.037a2.282 2.282 0 0 0-1.155.588 2.052 2.052 0 0 0-.625 1.05c-.085.326-.068.846.038 1.158.309.91 1.178 1.522 2.164 1.525a2.233 2.233 0 0 0 1.669-.702c.369-.374.572-.824.606-1.343.094-1.42-1.223-2.532-2.697-2.276Zm-9.152 3.91c-.094.056-3.298 2.962-3.588 3.254-.416.42-.514.987-.257 1.486.207.402.67.673 1.149.673.204 0 .548-.105.724-.221.076-.05.707-.674 1.403-1.385L8.44 6.46l2.007-.002.45-.003-.216.231-2.88 3.09-2.663 2.859H3.275c-2.044 0-2.071.002-2.405.158-.63.295-.962.902-.848 1.55.095.542.573 1.03 1.132 1.156.151.034.576.04 2.982.04 2.626 0 2.811-.003 2.88-.046.04-.026.68-.67 1.423-1.432a81.342 81.342 0 0 1 1.375-1.394c.033-.011 2.271 2.235 2.281 2.288.004.024-.15.994-.341 2.155-.192 1.162-.355 2.227-.361 2.367-.021.451.12.811.434 1.11.312.295.712.437 1.155.41.39-.024.685-.151.963-.413.174-.164.279-.322.359-.54.088-.242 1.244-6.24 1.228-6.377-.013-.113-.05-.15-1.626-1.663l-1.612-1.548 1.251-1.201 1.252-1.201.942.901c.996.952 1.05.994 1.388 1.079.3.075.623.04.917-.098.161-.075.354-.252 1.955-1.789 1.604-1.54 1.785-1.721 1.864-1.876.252-.496.152-1.05-.259-1.446a1.353 1.353 0 0 0-1.662-.188c-.068.04-.598.537-1.177 1.104-1.1 1.074-1.129 1.097-1.29 1.04-.033-.012-.716-.603-1.519-1.314-.802-.71-1.515-1.325-1.583-1.366a1.958 1.958 0 0 0-.297-.134l-.173-.06-2.256-.007c-2.236-.007-3.814-.006-3.905.048Z" clip-rule="evenodd"/></svg>