<svg width="24" height="24" viewBox="0 0 24 24" fill="none" xmlns="http://www.w3.org/2000/svg">
<path d="M4 16.4693V15.4693V10.2346V5V4H5H7.99695C10.9471 4 11.7354 4.01293 12.4074 4.0994L4 16.4693ZM4 16.4693H5M4 16.4693H5M5 16.4693H6.66514H8.33028H9.33028M5 16.4693H9.33028M9.33028 16.4693V15.4693M9.33028 16.4693V15.4693M9.33028 15.4693V13.3157V12.7664M9.33028 15.4693V12.7664M9.33028 8.29273C9.68944 8.28811 9.86628 8.28436 9.98743 8.27662C10.0892 8.27013 10.1396 8.2621 10.2817 8.2338L9.33028 8.29273ZM9.33028 8.29273V8.16362V8.02226M9.33028 8.29273V8.02226M9.33028 8.02226L9.34165 8.02226C9.34165 8.02226 9.34166 8.02226 9.34167 8.02226C10.1627 8.02234 10.3442 8.03403 10.4362 8.04898L9.33028 8.02226ZM9.33028 12.7664C9.63091 13.181 10.0181 13.7181 10.4351 14.2996L10.4351 14.2996L11.6835 16.0403L10.6717 17.4186C10.6717 17.4186 10.6717 17.4186 10.6717 17.4186C10.275 17.959 9.91405 18.4522 9.65204 18.8115C9.52115 18.991 9.41433 19.138 9.33988 19.241C9.30289 19.2922 9.27262 19.3343 9.25101 19.3647C9.24065 19.3793 9.22981 19.3946 9.22053 19.4081C9.21662 19.4138 9.20843 19.4257 9.19944 19.4396C9.19597 19.4449 9.18497 19.4619 9.17222 19.4839C9.16684 19.4932 9.15179 19.5193 9.13518 19.5539C9.12726 19.5704 9.11102 19.6053 9.09471 19.6511C9.09448 19.6517 9.0942 19.6525 9.09386 19.6534C9.08465 19.6789 9.0367 19.8118 9.0367 19.9867C9.0367 20.5279 9.4356 20.7887 9.49037 20.8244C9.59928 20.8955 9.69647 20.9278 9.72704 20.9378C9.80088 20.9619 9.86161 20.9717 9.87701 20.9743L9.87778 20.9744C9.92016 20.9813 9.95476 20.9841 9.96375 20.9848C9.99025 20.9869 10.0149 20.988 10.0287 20.9886C10.0607 20.9899 10.1005 20.9909 10.1426 20.9917C10.229 20.9934 10.3502 20.9949 10.4955 20.9961C10.7873 20.9985 11.1877 21 11.6269 21H13.2172H13.7322L14.0313 20.5807L14.9362 19.312L14.9579 19.2816C14.9853 19.3268 15.0129 19.3723 15.0406 19.418L15.0406 19.418L15.7005 20.5058L15.9912 20.985L16.5516 20.9872L18.2739 20.9938H18.2739C18.7492 20.9956 19.1824 20.9958 19.4978 20.9947C19.6549 20.9941 19.7854 20.9932 19.8779 20.9919C19.9232 20.9913 19.9647 20.9905 19.9973 20.9894C20.0117 20.9889 20.0354 20.9881 20.0602 20.9864L20.0605 20.9864C20.0694 20.9857 20.1008 20.9836 20.1389 20.9781C20.1514 20.9763 20.2078 20.9685 20.2771 20.9485C20.3041 20.9407 20.3967 20.9137 20.5027 20.852C20.5558 20.8212 20.6594 20.7548 20.7594 20.6381C20.8654 20.5144 21 20.2923 21 19.9875C21 19.8083 20.9496 19.6721 20.9405 19.6477C20.9402 19.6468 20.9399 19.646 20.9397 19.6454C20.9231 19.5998 20.9067 19.5652 20.8988 19.549C20.8822 19.5149 20.8672 19.4892 20.8619 19.4802C20.8493 19.4588 20.8385 19.4422 20.8351 19.437C20.8262 19.4235 20.8181 19.4118 20.8143 19.4062C20.805 19.3929 20.7943 19.3777 20.7839 19.3632C20.7622 19.3329 20.7318 19.2909 20.6947 19.2397C20.6199 19.1368 20.5126 18.99 20.381 18.8105C20.1177 18.4513 19.755 17.9583 19.3562 17.4179C18.8785 16.7705 18.5606 16.3379 18.3509 16.0477C18.5876 15.7342 18.9161 15.2993 19.2863 14.8101L20.607 13.0651L21.8144 11.4698L19.8137 11.4616L18.1968 11.455C17.5629 11.4524 17.1472 11.4524 16.8855 11.4565C16.7577 11.4585 16.6484 11.4616 16.5627 11.4677C16.523 11.4705 16.4618 11.4756 16.3962 11.4872C16.3646 11.4927 16.3055 11.5043 16.2358 11.5275L16.2339 11.5281C16.1908 11.5425 16.0057 11.6041 15.8362 11.7738L16.5436 12.4806L15.8362 11.7738C15.7964 11.8137 15.7671 11.8503 15.7643 11.8539L15.764 11.8541C15.755 11.8653 15.7474 11.875 15.743 11.8809C15.7336 11.8931 15.7244 11.9055 15.7169 11.9156C15.7014 11.9368 15.682 11.9635 15.6606 11.9933C15.6172 12.0538 15.558 12.1371 15.4878 12.2365C15.355 12.4245 15.1793 12.6749 14.989 12.9475C14.8575 12.7633 14.7015 12.5412 14.5557 12.3296L13.7321 12.8968L14.5557 12.3296C14.2513 11.8875 14.0351 11.5764 13.855 11.3239C14.1851 11.1586 14.4828 10.9527 14.7713 10.6856M9.33028 12.7664L12.4074 4.09941C13.5103 4.24127 14.3759 4.5827 15.0491 5.341C15.6863 6.05876 15.9629 6.90676 15.9632 7.89223C15.9633 8.33473 15.8928 8.83152 15.7526 9.23287C15.5685 9.76014 15.1879 10.2999 14.7713 10.6856M14.7713 10.6856L14.0919 9.95182L14.7713 10.6856ZM12.552 11.1517L12.5069 11.1868L12.552 11.1517ZM12.552 11.1517L12.6236 11.229M10.6288 8.08977C10.6013 8.08122 10.5447 8.06664 10.4362 8.04899L10.6288 8.08977ZM10.6288 8.08977C10.6306 8.09719 10.632 8.10809 10.6312 8.1215C10.6301 8.13805 10.6259 8.14977 10.6232 8.1556C10.6182 8.15869 10.614 8.16125 10.6105 8.16336C10.5968 8.16706 10.5733 8.17296 10.5349 8.18153C10.4753 8.19484 10.3963 8.21099 10.2818 8.2338L10.6288 8.08977Z" stroke="#FBFBFB" strokeWidth="2"/>
<rect x="10" y="15" width="1" height="2" fill="#FBFBFB"/>
</svg>
