<svg xmlns="http://www.w3.org/2000/svg" width="27" height="26" viewBox="0 0 27 26" fill="none">
  <path d="M10.25 6.49996V11.3763C10.25 11.9731 10.25 12.2715 10.1756 12.5481C10.1097 12.7931 10.0012 13.0246 9.85521 13.2321C9.69039 13.4663 9.46114 13.6573 9.00264 14.0394L4.99736 17.3772C4.53886 17.7592 4.30961 17.9503 4.14479 18.1845C3.99877 18.392 3.89032 18.6235 3.8244 18.8685C3.75 19.1451 3.75 19.4435 3.75 20.0403V20.3666C3.75 21.5801 3.75 22.1868 3.98615 22.6503C4.19388 23.058 4.52534 23.3894 4.93302 23.5971C5.3965 23.8333 6.00322 23.8333 7.21667 23.8333H19.7833C20.9968 23.8333 21.6035 23.8333 22.067 23.5971C22.4747 23.3894 22.8061 23.058 23.0138 22.6503C23.25 22.1868 23.25 21.5801 23.25 20.3666V20.0403C23.25 19.4435 23.25 19.1451 23.1756 18.8685C23.1097 18.6235 23.0012 18.392 22.8552 18.1845C22.6904 17.9503 22.4611 17.7592 22.0026 17.3772L17.9974 14.0394C17.5389 13.6573 17.3096 13.4663 17.1448 13.2321C16.9988 13.0246 16.8903 12.7931 16.8244 12.5481C16.75 12.2715 16.75 11.9731 16.75 11.3763V6.49996M9.49167 6.49996H17.5083C17.8117 6.49996 17.9634 6.49996 18.0792 6.44092C18.1812 6.38899 18.264 6.30613 18.316 6.2042C18.375 6.08834 18.375 5.93665 18.375 5.63329V3.03329C18.375 2.72993 18.375 2.57825 18.316 2.46238C18.264 2.36046 18.1812 2.2776 18.0792 2.22566C17.9634 2.16663 17.8117 2.16663 17.5083 2.16663H9.49167C9.18831 2.16663 9.03662 2.16663 8.92076 2.22566C8.81883 2.2776 8.73597 2.36046 8.68404 2.46238C8.625 2.57825 8.625 2.72993 8.625 3.03329V5.63329C8.625 5.93665 8.625 6.08834 8.68404 6.2042C8.73597 6.30613 8.81883 6.38899 8.92076 6.44092C9.03662 6.49996 9.18831 6.49996 9.49167 6.49996ZM6.45833 18.4166H20.5417C21.045 18.4166 21.2967 18.4166 21.506 18.4583C22.3655 18.6292 23.0374 19.3011 23.2084 20.1606C23.25 20.3699 23.25 20.6216 23.25 21.125C23.25 21.6283 23.25 21.88 23.2084 22.0893C23.0374 22.9488 22.3655 23.6207 21.506 23.7917C21.2967 23.8333 21.045 23.8333 20.5417 23.8333H6.45833C5.95496 23.8333 5.70327 23.8333 5.49397 23.7917C4.63447 23.6207 3.9626 22.9488 3.79163 22.0893C3.75 21.88 3.75 21.6283 3.75 21.125C3.75 20.6216 3.75 20.3699 3.79163 20.1606C3.9626 19.3011 4.63447 18.6292 5.49397 18.4583C5.70327 18.4166 5.95496 18.4166 6.45833 18.4166Z" stroke="#FBFBFB" stroke-width="2" stroke-linecap="round" stroke-linejoin="round"/>
</svg>