<svg xmlns="http://www.w3.org/2000/svg" width="25" height="26" viewBox="0 0 25 26" fill="none">
  <path d="M22.396 19.599L15.4764 13.349M9.52397 13.349L2.60437 19.599M2.0835 8.14062L10.5886 14.0942C11.2773 14.5763 11.6217 14.8174 11.9963 14.9107C12.3271 14.9932 12.6732 14.9932 13.0041 14.9107C13.3786 14.8174 13.723 14.5763 14.4117 14.0942L22.9168 8.14062M7.0835 21.6823H17.9168C19.667 21.6823 20.5421 21.6823 21.2105 21.3417C21.7986 21.0421 22.2766 20.564 22.5762 19.976C22.9168 19.3075 22.9168 18.4325 22.9168 16.6823V10.0156C22.9168 8.26546 22.9168 7.39038 22.5762 6.7219C22.2766 6.1339 21.7986 5.65583 21.2105 5.35623C20.5421 5.01562 19.667 5.01562 17.9168 5.01562H7.0835C5.33333 5.01562 4.45825 5.01562 3.78978 5.35623C3.20177 5.65583 2.7237 6.1339 2.4241 6.7219C2.0835 7.39038 2.0835 8.26546 2.0835 10.0156V16.6823C2.0835 18.4325 2.0835 19.3075 2.4241 19.976C2.7237 20.564 3.20177 21.0421 3.78978 21.3417C4.45825 21.6823 5.33333 21.6823 7.0835 21.6823Z" stroke="white" strokeWidth="2.08333" strokeLinecap="round" strokeLinejoin="round"/>
</svg>