<svg xmlns="http://www.w3.org/2000/svg" width="26" height="26" fill="none"><path stroke="#FBFBFB" stroke-linecap="round" stroke-linejoin="round" stroke-width="2.167" d="M15.166 7.583h2.532c.265 0 .398 0 .523.03.11.027.216.07.313.13.11.067.203.16.39.348l4.402 4.401c.187.188.28.281.348.39.059.098.103.203.13.314.03.125.03.257.03.522v3.074c0 .505 0 .757-.083.956-.11.265-.321.476-.587.586-.199.083-.451.083-.956.083m-5.416 0h-1.626m0 0V7.8c0-1.213 0-1.82-.236-2.284a2.167 2.167 0 0 0-.947-.946c-.463-.237-1.07-.237-2.283-.237H5.633c-1.213 0-1.82 0-2.283.237-.408.207-.74.539-.947.946-.236.464-.236 1.07-.236 2.284v8.45c0 1.197.97 2.167 2.166 2.167m10.834 0h-4.334m0 0a3.25 3.25 0 0 1-6.5 0m6.5 0a3.25 3.25 0 0 0-6.5 0m17.875.541a2.708 2.708 0 1 1-5.417 0 2.708 2.708 0 0 1 5.417 0Z"/></svg>