<svg width="17" height="17" viewBox="0 0 17 17" fill="none" xmlns="http://www.w3.org/2000/svg">
<path d="M14.1668 14.8751C14.1668 13.8866 14.1668 13.3923 14.0448 12.9901C13.7701 12.0846 13.0615 11.376 12.156 11.1013C11.7538 10.9793 11.2595 10.9793 10.271 10.9793H6.72933C5.74081 10.9793 5.24654 10.9793 4.84435 11.1013C3.93882 11.376 3.23019 12.0846 2.9555 12.9901C2.8335 13.3923 2.8335 13.8866 2.8335 14.8751M11.6877 5.31262C11.6877 7.07303 10.2606 8.50012 8.50016 8.50012C6.73975 8.50012 5.31266 7.07303 5.31266 5.31262C5.31266 3.55221 6.73975 2.12512 8.50016 2.12512C10.2606 2.12512 11.6877 3.55221 11.6877 5.31262Z" stroke="#FBFBFB" stroke-width="1.41667" stroke-linecap="round" stroke-linejoin="round"/>
</svg>
