<svg width="257" height="313" viewBox="0 0 257 313" fill="none" xmlns="http://www.w3.org/2000/svg">
<path fill-rule="evenodd" clip-rule="evenodd" d="M388.837 -187L388.837 -130.204L388.837 -129.866L388.837 -76.6583L388.837 -74.8638L388.837 -74.5259L388.837 -21.3185L388.837 -19.524L388.837 -19.1848L388.837 34.0226L388.837 35.8171L388.837 36.1549L388.837 89.3623L388.837 91.1568L388.837 146.497L388.837 146.834L388.837 200.042L388.837 201.836L388.837 202.174L388.837 255.382L388.837 257.176L388.837 257.515L388.837 310.723L388.837 312.517L387.042 312.517L333.835 312.517L333.496 312.517L332.041 312.517L331.702 312.517L278.495 312.517L278.157 312.517L276.7 312.517L276.363 312.517L223.155 312.517L222.817 312.517L221.361 312.517L221.022 312.517L167.815 312.517L167.476 312.517L166.02 312.517L165.682 312.517L112.475 312.517L112.137 312.517L110.68 312.517L110.343 312.517L57.1352 312.517L56.7963 312.517L55.3407 312.517L55.0018 312.517L1.79439 312.517L-0.000100236 312.517L-0.000100314 310.723L-0.00010264 257.515L-0.000102655 257.176L-0.000102718 255.721L-0.000102733 255.382L-0.000105059 202.174L-0.000105074 201.836L-0.000105137 200.38L-0.000105152 200.042L-0.000107478 146.834L-0.000107493 146.497L-0.000107556 145.04L-0.000107571 144.702L-0.000109897 91.4947L-0.000109912 91.1568L-0.000109975 89.7002L-0.00010999 89.3623L-0.000112316 36.1549L-0.000112331 35.8171L-0.000112394 34.3604L-0.000112409 34.0226L-0.000114735 -19.1848L-0.00011475 -19.524L-0.000114813 -20.9793L-0.000114828 -21.3185L-0.000117154 -74.5259L-0.000117169 -74.8638L-0.000117232 -76.3204L-0.000117247 -76.6583L-0.000119573 -129.866L-0.000119588 -130.204L-0.000119651 -131.66L-0.000119666 -131.998L-0.000121992 -185.205L-0.00012207 -187L1.7944 -187L55.0018 -187L56.7963 -187L57.1352 -187L110.343 -187L112.137 -187L112.475 -187L165.682 -187L167.477 -187L167.815 -187L221.022 -187L222.817 -187L223.155 -187L276.363 -187L278.157 -187L278.495 -187L331.702 -187L333.496 -187L388.837 -187ZM387.042 -76.6583L387.042 -129.866L333.835 -129.866L333.835 -76.6583L387.042 -76.6583ZM387.042 -74.5259L387.042 -21.3185L333.835 -21.3185L333.835 -74.5259L387.042 -74.5259ZM387.042 34.0226L387.042 -19.1848L333.835 -19.1848L333.835 34.0226L387.042 34.0226ZM387.042 36.1549L387.042 89.3623L333.835 89.3623L333.835 36.1549L387.042 36.1549ZM387.042 146.834L387.042 200.042L333.835 200.042L333.835 146.834L387.042 146.834ZM387.042 255.382L387.042 202.174L333.835 202.174L333.835 255.382L387.042 255.382ZM387.042 257.515L387.042 310.723L333.835 310.723L333.835 257.515L387.042 257.515ZM331.702 -131.998L331.702 -185.205L278.495 -185.205L278.495 -131.998L331.702 -131.998ZM276.363 -185.205L276.363 -131.998L223.155 -131.998L223.155 -185.205L276.363 -185.205ZM221.022 -131.998L221.022 -185.205L167.815 -185.205L167.815 -131.998L221.022 -131.998ZM165.682 -185.205L165.682 -131.998L112.475 -131.998L112.475 -185.205L165.682 -185.205ZM110.343 -131.998L110.343 -185.205L57.1352 -185.205L57.1352 -131.998L110.343 -131.998ZM55.0018 -185.205L55.0018 -131.998L1.79441 -131.998L1.7944 -185.205L55.0018 -185.205ZM331.702 -76.6583L331.702 -129.866L278.495 -129.866L278.495 -76.6583L331.702 -76.6583ZM276.363 -129.866L276.363 -76.6583L223.155 -76.6583L223.155 -129.866L276.363 -129.866ZM221.022 -76.6583L221.022 -129.866L167.815 -129.866L167.815 -76.6583L221.022 -76.6583ZM165.682 -129.866L165.682 -76.6583L112.475 -76.6583L112.475 -129.866L165.682 -129.866ZM110.343 -76.6583L110.343 -129.866L57.1352 -129.866L57.1352 -76.6583L110.343 -76.6583ZM55.0018 -129.866L55.0018 -76.6583L1.79441 -76.6583L1.79441 -129.866L55.0018 -129.866ZM331.702 -21.3185L331.702 -74.5259L278.495 -74.5259L278.495 -21.3185L331.702 -21.3185ZM276.363 -74.5259L276.363 -21.3185L223.155 -21.3185L223.155 -74.5259L276.363 -74.5259ZM221.022 -21.3185L221.022 -74.5259L167.815 -74.5259L167.815 -21.3185L221.022 -21.3185ZM110.343 -21.3185L110.343 -74.5259L57.1352 -74.5259L57.1352 -21.3185L110.343 -21.3185ZM55.0018 -74.5259L55.0018 -21.3185L1.79441 -21.3185L1.79441 -74.5259L55.0018 -74.5259ZM331.702 34.0226L331.702 -19.1848L278.495 -19.1848L278.495 34.0226L331.702 34.0226ZM276.363 -19.1848L276.363 34.0226L223.155 34.0226L223.155 -19.1848L276.363 -19.1848ZM221.022 34.0226L221.022 -19.1848L167.815 -19.1848L167.815 34.0226L221.022 34.0226ZM165.682 -19.1849L165.682 34.0226L112.475 34.0226L112.475 -19.1848L165.682 -19.1849ZM110.343 34.0226L110.343 -19.1848L57.1352 -19.1848L57.1352 34.0226L110.343 34.0226ZM55.0018 -19.1848L55.0018 34.0226L1.79441 34.0226L1.79441 -19.1848L55.0018 -19.1848ZM276.363 36.1549L276.363 89.3623L223.155 89.3623L223.155 36.1549L276.363 36.1549ZM165.682 36.1549L165.682 89.3623L112.475 89.3623L112.475 36.1549L165.682 36.1549ZM55.0018 36.1549L55.0018 89.3623L1.79438 89.3623L1.79438 36.1549L55.0018 36.1549ZM331.702 144.702L331.702 91.4947L278.495 91.4947L278.495 144.702L331.702 144.702ZM276.363 91.4947L276.363 144.702L223.155 144.702L223.155 91.4947L276.363 91.4947ZM221.022 144.702L221.022 91.4947L167.815 91.4947L167.815 144.702L221.022 144.702ZM165.682 91.4947L165.682 144.702L112.475 144.702L112.475 91.4947L165.682 91.4947ZM110.343 144.702L110.343 91.4947L57.1352 91.4947L57.1352 144.702L110.343 144.702ZM55.0018 91.4947L55.0018 144.702L1.79439 144.702L1.79438 91.4947L55.0018 91.4947ZM331.702 200.042L331.702 146.834L278.495 146.834L278.495 200.042L331.702 200.042ZM276.363 146.834L276.363 200.042L223.155 200.042L223.155 146.834L276.363 146.834ZM165.682 146.834L165.682 200.042L112.475 200.042L112.475 146.834L165.682 146.834ZM110.343 200.042L110.343 146.834L57.1352 146.834L57.1352 200.042L110.343 200.042ZM55.0018 146.834L55.0018 200.042L1.79439 200.042L1.79439 146.834L55.0018 146.834ZM331.702 255.382L331.702 202.174L278.495 202.174L278.495 255.382L331.702 255.382ZM276.363 202.174L276.363 255.382L223.155 255.382L223.155 202.174L276.363 202.174ZM221.022 255.382L221.022 202.174L167.815 202.174L167.815 255.382L221.022 255.382ZM165.682 202.174L165.682 255.382L112.475 255.382L112.475 202.174L165.682 202.174ZM110.343 255.382L110.343 202.174L57.1351 202.174L57.1352 255.382L110.343 255.382ZM55.0018 202.174L55.0018 255.382L1.79439 255.382L1.79439 202.174L55.0018 202.174ZM331.702 310.723L331.702 257.515L278.495 257.515L278.495 310.723L331.702 310.723ZM276.363 257.515L276.363 310.723L223.155 310.723L223.155 257.515L276.363 257.515ZM221.022 310.723L221.022 257.515L167.815 257.515L167.815 310.723L221.022 310.723ZM165.682 257.515L165.682 310.723L112.475 310.723L112.475 257.515L165.682 257.515ZM110.343 310.723L110.343 257.515L57.1352 257.515L57.1352 310.723L110.343 310.723ZM55.0018 257.515L55.0018 310.723L1.79439 310.723L1.79439 257.515L55.0018 257.515Z" fill="url(#paint0_linear_4385_61074)"/>
<defs>
<linearGradient id="paint0_linear_4385_61074" x1="374.5" y1="-155.5" x2="39.9921" y2="196.846" gradientUnits="userSpaceOnUse">
<stop stop-color="#99D4FF" stop-opacity="0.15"/>
<stop offset="1" stop-color="#99D4FF" stop-opacity="0"/>
</linearGradient>
</defs>
</svg>
