<svg width="491" height="643" viewBox="0 0 491 643" fill="none" xmlns="http://www.w3.org/2000/svg">
<path fill-rule="evenodd" clip-rule="evenodd" d="M235.5 1.2584C227.575 4.3654 221.97 9.2194 218.454 16.0194C217.583 17.7034 214.929 26.8124 212.556 36.2624C207.139 57.8324 200.086 76.9144 189.946 97.4304C168.983 139.842 142.47 172.892 102.5 206.435C48.2422 251.968 17.6312 297.949 5.6412 351.93C1.8542 368.98 0.798199 379.437 0.844199 399.43C0.934199 438.297 9.16225 473.012 26.4253 507.362C46.4283 547.165 73.5053 577.912 109.727 601.955C139.22 621.532 169.639 633.625 205.667 640.096C216.965 642.125 221.73 642.402 245.5 642.415C275.481 642.432 283.757 641.499 307.5 635.431C379.248 617.093 439.202 566.351 469.964 497.93C484.762 465.017 491.729 429.392 490.696 391.93C489.748 357.576 483.057 331.133 467.544 300.43C450.189 266.082 425.624 236.675 388.364 205.644C364.192 185.512 348.959 169.648 332.34 147.3C305.994 111.873 288.041 73.6074 277.946 31.3654C276.268 24.3474 274.41 17.6654 273.816 16.5174C271.03 11.1354 265.598 5.8854 259.835 3.0064C254.514 0.347398 252.652 -0.0596023 246.09 0.00639771C241.916 0.0483977 237.15 0.611398 235.5 1.2584ZM249.579 132.68C277.048 183.114 305.317 217.607 349 253.993C373.293 274.227 387.733 289.703 401.192 309.93C418.884 336.518 427.524 362.638 428.649 392.93C430.547 444.062 410.803 492.635 373.336 529.008C362.319 539.703 356.822 544.16 345.837 551.307C322.173 566.702 294.685 576.658 266.754 579.953C250.809 581.833 224.788 580.726 209.431 577.513C136.87 562.334 81.8752 507.205 66.2552 433.988C63.8212 422.581 63.5722 419.413 63.5382 399.43C63.5042 379.965 63.7682 376.234 65.8242 367.049C75.1922 325.211 100.023 288.882 143.5 253.409C159.557 240.308 188.244 211.404 200.772 195.705C213.299 180.006 230.356 154.326 239 138.149C242.575 131.459 245.59 125.973 245.701 125.958C245.812 125.942 247.557 128.967 249.579 132.68Z" fill="#FBFBFB"/>
</svg>
