<svg width="705" height="675" viewBox="0 0 705 675" fill="none" xmlns="http://www.w3.org/2000/svg">
<path fill-rule="evenodd" clip-rule="evenodd" d="M521 2.39917C503.339 8.44217 490.607 21.7442 485.478 39.5102C484.233 43.8222 483.883 47.9692 484.171 55.0102C484.507 63.2552 485.018 65.5932 487.759 71.4372C489.516 75.1842 491.895 79.5722 493.045 81.1872L495.136 84.1232L472.818 105.844C460.543 117.791 444.575 133.37 437.333 140.464L424.166 153.363L415.326 144.993C396.66 127.318 383.318 115.83 378.769 113.516C368.619 108.352 354.983 106.86 343.24 109.629C323.959 114.174 308.051 130.082 303.506 149.363C299.061 168.216 303.689 182.497 319.624 199.099L329.042 208.911L322.618 214.767C313.468 223.108 184.487 346.815 147.272 382.944C118.455 410.919 115.766 413.821 112.513 420.444C105.728 434.256 105.524 451.455 111.988 464.623C113.771 468.254 118.38 474.324 123.662 479.996L132.391 489.369L127.945 493.448C125.5 495.692 110 510.431 93.5004 526.201C77.0004 541.972 50.9004 565.957 35.5004 579.501C4.99735 606.33 4.74435 606.635 1.46835 620.525C-3.39065 641.127 4.61035 659.787 22.0434 668.508C30.8974 672.937 38.3694 674.465 48.4604 673.908C62.0304 673.159 60.9193 673.973 103.5 633.58C113.4 624.189 137.621 601.119 157.324 582.314C177.026 563.509 193.451 548.137 193.824 548.154C194.196 548.17 198.775 552.002 204 556.669C209.225 561.336 215.761 566.275 218.524 567.645C234.882 575.757 257.67 574.104 271.655 563.791C274.87 561.42 281.341 555.912 286.036 551.551C294.466 543.722 462.846 383.128 478.674 367.821L486.848 359.917L495.463 367.448C511.752 381.69 520.589 386.086 534.5 386.867C553.094 387.911 570.207 379.5 581.397 363.819C588.923 353.273 590.399 348.513 590.453 334.623C590.496 323.715 590.263 322.123 587.895 317.123C583.906 308.699 576.893 300.091 560.906 283.996L546.296 269.286L581.87 235.37L617.445 201.454L623.431 205.323C632.896 211.441 641.047 213.469 653.84 212.89C665.995 212.34 670.157 211.002 680.225 204.407C696.805 193.548 705.938 175.751 704.689 156.738C704.029 146.694 699.76 137.645 690.698 127.084C675.642 109.536 575.609 14.7222 564.042 7.03717C553.352 -0.0658288 534.227 -2.12683 521 2.39917ZM603 128.238C603 129.047 519.319 209.397 517.907 209.943C517.034 210.281 486.5 181.457 486.5 180.295C486.5 179.922 505.545 161.05 528.822 138.356L571.143 97.0952L587.072 112.284C595.832 120.639 603 127.818 603 128.238ZM446.319 260.088L476.138 288.509L472.819 290.221C467.821 292.798 457.049 302.339 430 328.146C363.07 392.002 274.668 476.402 259.545 490.884C250.206 499.827 242.263 507.027 241.894 506.884C240.837 506.473 194.515 462.308 184.279 451.952L175.058 442.623L207.779 411.064C225.776 393.707 266.825 354.339 299 323.58C381.242 244.957 397.539 228.782 400.255 223.081L402.5 218.368L409.5 225.018C413.35 228.675 429.919 244.457 446.319 260.088Z" fill="#FBFBFB"/>
</svg>
