<svg width="638" height="584" viewBox="0 0 638 584" fill="none" xmlns="http://www.w3.org/2000/svg">
<path fill-rule="evenodd" clip-rule="evenodd" d="M0 221.995V443.99L97.3059 444.245L194.613 444.5L179.317 465.5C170.904 477.05 162.656 489.059 160.986 492.186C151.628 509.716 151.897 533.305 161.656 550.899C166.804 560.182 177.606 570.557 187 575.242C201.75 582.598 198.655 582.336 275.527 582.756L344.555 583.133L350.47 574.816C353.724 570.242 358.136 564.106 360.275 561.181L364.165 555.862L372.072 568.811L379.979 581.761L434.739 582.515C499.158 583.402 527.805 582.823 536.5 580.457C557.561 574.728 575.068 556.849 580.485 535.54C582.419 527.932 582.403 514.336 580.451 506.053C578.337 497.085 574.232 489.237 565.253 477C561.015 471.225 546.776 451.875 533.61 434C520.444 416.125 509.67 401.027 509.669 400.448C509.668 399.87 538.542 361.254 573.833 314.634C609.125 268.015 638 229.746 638 229.591C638 228.997 425.96 228.339 416.341 228.904L406.181 229.5L408.675 225.5C416.041 213.686 422.257 196.864 425.675 179.5C428.439 165.455 428.138 132.084 425.12 118C418.84 88.689 406.297 65.342 385.996 45.177C367.043 26.351 342.42 13.533 312.938 7.145C284.265 0.933002 260.114 0.0750009 112.75 0.0330009L0 0V221.995ZM273.5 63.951C308.634 67.292 328.526 75.12 344.159 91.758C361.795 110.527 368.949 135.653 364.915 164.658C362.427 182.546 355.321 196.662 342.028 210.124C328.918 223.4 315.667 230.593 292.974 236.752C287.488 238.24 283 239.871 283 240.376C283 240.881 288.109 248.091 294.353 256.397C300.597 264.704 311.02 279.15 317.515 288.5C346.641 330.428 366.016 356.5 368.048 356.5C369.128 356.5 369.312 356.248 395.665 318.75L415.167 291H464.167C491.117 291 513.017 291.355 512.833 291.788C512.65 292.222 494.371 316.521 472.214 345.787C435.087 394.826 432.021 399.175 433.102 401.249C434.723 404.357 448.914 423.975 486.814 475.5L519.18 519.5L514.34 520.282C511.678 520.712 488.268 520.767 462.318 520.404L415.135 519.745L391.917 481.406C379.148 460.32 368.423 443.238 368.086 443.447C367.748 443.656 355.103 461.18 339.986 482.389L312.5 520.953L267.5 520.858C242.75 520.806 221.239 520.479 219.697 520.132C216.93 519.508 217.457 518.731 260.473 460.04C284.442 427.336 303.851 400.054 303.605 399.412C303.162 398.26 241.886 312.675 214.593 275.092C197.287 251.259 197.667 251.507 176.75 250.435L163 249.73V315.865V382H112.5H62V221.861V61.722L162.25 62.314C219.2 62.65 267.251 63.357 273.5 63.951ZM163 158.505V194.299L192.25 193.693C223.879 193.039 235.799 191.477 246.586 186.573C269.433 176.187 271.067 141.607 249.272 129.745C239.844 124.613 234.386 123.937 197.25 123.3L163 122.712V158.505Z" fill="#FBFBFB"/>
</svg>
