<svg width="16" height="17" viewBox="0 0 16 17" fill="none" xmlns="http://www.w3.org/2000/svg">
<path d="M5.93852 7.375C5.93852 7.78921 6.27431 8.125 6.68852 8.125C7.10274 8.125 7.43852 7.78921 7.43852 7.375H5.93852ZM9.091 8.21598L9.63527 8.73199L9.091 8.21598ZM7.56639 8.73399C7.2814 9.03458 7.29405 9.50928 7.59464 9.79427C7.89523 10.0793 8.36994 10.0666 8.65493 9.76601L7.56639 8.73399ZM9.21619 11.5C9.21619 11.0858 8.8804 10.75 8.46619 10.75C8.05197 10.75 7.71619 11.0858 7.71619 11.5H9.21619ZM8.50512 11.5C8.50512 11.0858 8.16934 10.75 7.75512 10.75C7.34091 10.75 7.00512 11.0858 7.00512 11.5H8.50512ZM7.71619 11.5C7.71619 11.9142 8.05197 12.25 8.46619 12.25C8.8804 12.25 9.21619 11.9142 9.21619 11.5H7.71619ZM7.00512 11.5C7.00512 11.9142 7.34091 12.25 7.75512 12.25C8.16934 12.25 8.50512 11.9142 8.50512 11.5H7.00512ZM8.46619 12.25C8.8804 12.25 9.21619 11.9142 9.21619 11.5C9.21619 11.0858 8.8804 10.75 8.46619 10.75V12.25ZM7.75512 10.75C7.34091 10.75 7.00512 11.0858 7.00512 11.5C7.00512 11.9142 7.34091 12.25 7.75512 12.25V10.75ZM7.43852 7.375V7H5.93852V7.375H7.43852ZM7.43852 7C7.43852 6.5476 7.7766 6.25 8.11066 6.25V4.75C6.87382 4.75 5.93852 5.79554 5.93852 7H7.43852ZM8.11066 6.25C8.44471 6.25 8.78279 6.5476 8.78279 7H10.2828C10.2828 5.79554 9.34749 4.75 8.11066 4.75V6.25ZM8.78279 7V7.09098H10.2828V7H8.78279ZM8.78279 7.09098C8.78279 7.32654 8.69368 7.54496 8.54673 7.69996L9.63527 8.73199C10.054 8.29029 10.2828 7.69931 10.2828 7.09098H8.78279ZM8.54673 7.69996L7.56639 8.73399L8.65493 9.76601L9.63527 8.73199L8.54673 7.69996ZM7.71619 11.5C7.71619 11.331 7.8556 11.125 8.11066 11.125V12.625C8.75837 12.625 9.21619 12.0831 9.21619 11.5H7.71619ZM8.11066 11.125C8.36572 11.125 8.50512 11.331 8.50512 11.5H7.00512C7.00512 12.0831 7.46295 12.625 8.11066 12.625V11.125ZM9.21619 11.5C9.21619 10.9169 8.75837 10.375 8.11066 10.375V11.875C7.8556 11.875 7.71619 11.669 7.71619 11.5H9.21619ZM8.11066 10.375C7.46295 10.375 7.00512 10.9169 7.00512 11.5H8.50512C8.50512 11.669 8.36572 11.875 8.11066 11.875V10.375ZM8.46619 10.75H7.75512V12.25H8.46619V10.75ZM14.4713 8.5C14.4713 12.2661 11.5863 15.25 8.11066 15.25V16.75C12.4891 16.75 15.9713 13.0181 15.9713 8.5H14.4713ZM8.11066 15.25C4.63493 15.25 1.75 12.2661 1.75 8.5H0.25C0.25 13.0181 3.73216 16.75 8.11066 16.75V15.25ZM1.75 8.5C1.75 4.7339 4.63493 1.75 8.11066 1.75V0.25C3.73216 0.25 0.25 3.98182 0.25 8.5H1.75ZM8.11066 1.75C11.5863 1.75 14.4713 4.7339 14.4713 8.5H15.9713C15.9713 3.98182 12.4891 0.25 8.11066 0.25V1.75Z" fill="#919B9F"/>
</svg>
